<?xml version="1.0" encoding="UTF-8"?>
<!DOCTYPE svg PUBLIC "-//W3C//DTD SVG 1.1//EN" "http://www.w3.org/Graphics/SVG/1.1/DTD/svg11.dtd">
<svg xmlns="http://www.w3.org/2000/svg" version="1.1" width="1407px" height="782px" style="shape-rendering:geometricPrecision; text-rendering:geometricPrecision; image-rendering:optimizeQuality; fill-rule:evenodd; clip-rule:evenodd" xmlns:xlink="http://www.w3.org/1999/xlink">
<g><path style="opacity:0.996" fill="#2c00fb" d="M 407.5,16.5 C 408.492,16.3284 409.158,16.6618 409.5,17.5C 409.511,19.0174 410.177,20.1841 411.5,21C 418.914,25.7391 426.58,30.0724 434.5,34C 435.337,35.0113 435.67,36.1779 435.5,37.5C 437.604,37.2011 439.604,37.5344 441.5,38.5C 444.502,41.003 447.835,43.003 451.5,44.5C 452.641,45.4255 452.641,46.2588 451.5,47C 453.101,47.2734 454.601,47.7734 456,48.5C 456.617,49.4491 456.451,50.2825 455.5,51C 456.047,51.9246 456.713,52.7579 457.5,53.5C 458.696,53.1543 458.696,52.6543 457.5,52C 460.227,51.1816 462.894,51.3483 465.5,52.5C 475.491,58.4962 485.491,64.4962 495.5,70.5C 499.314,72.7439 503.314,74.4106 507.5,75.5C 507.089,78.2763 507.922,78.943 510,77.5C 513.239,80.7025 517.073,82.7025 521.5,83.5C 521.5,84.8333 521.5,86.1667 521.5,87.5C 529.224,89.3561 536.558,92.3561 543.5,96.5C 561.131,108.757 579.798,119.424 599.5,128.5C 604.16,132.834 609.494,136.168 615.5,138.5C 616.685,139.853 618.019,141.02 619.5,142C 619.167,142.333 618.833,142.667 618.5,143C 629.466,146.984 639.799,152.317 649.5,159C 651.473,159.495 653.473,159.662 655.5,159.5C 656.406,161.417 657.739,163.083 659.5,164.5C 668.943,169.725 678.276,175.225 687.5,181C 693.621,182.892 698.955,186.059 703.5,190.5C 705.396,191.466 707.396,191.799 709.5,191.5C 709.328,193.492 709.995,195.158 711.5,196.5C 708.914,197.48 706.247,197.813 703.5,197.5C 703.5,198.833 703.5,200.167 703.5,201.5C 698.015,204.338 692.015,206.338 685.5,207.5C 670.695,200.513 656.195,192.846 642,184.5C 641.536,185.094 641.369,185.761 641.5,186.5C 640.5,186.167 639.833,185.5 639.5,184.5C 639.938,184.565 640.272,184.399 640.5,184C 639.5,183 638.5,182 637.5,181C 624.202,174.528 611.535,167.028 599.5,158.5C 595.13,156.315 590.797,154.149 586.5,152C 585.251,151.26 584.251,151.427 583.5,152.5C 581.566,151.89 579.899,150.89 578.5,149.5C 579.773,148.923 579.773,148.257 578.5,147.5C 574.355,144.853 570.355,142.019 566.5,139C 567.337,137.989 567.67,136.822 567.5,135.5C 565.334,135.579 563.334,136.246 561.5,137.5C 557.176,135.222 552.843,133.055 548.5,131C 547.663,129.989 547.33,128.822 547.5,127.5C 541.787,127.31 537.12,124.977 533.5,120.5C 527.035,118.353 521.035,115.353 515.5,111.5C 514.893,111.624 514.56,111.957 514.5,112.5C 512.847,112.34 511.514,111.674 510.5,110.5C 511.332,109.671 510.999,108.838 509.5,108C 501.833,103.667 494.167,99.3333 486.5,95C 485.651,92.6451 484.151,90.8118 482,89.5C 480.56,90.6071 479.06,90.6071 477.5,89.5C 474.09,87.1409 470.756,84.8076 467.5,82.5C 448.158,72.9999 429.491,62.3333 411.5,50.5C 404.071,47.7303 397.404,43.7303 391.5,38.5C 388.914,37.52 386.247,37.1866 383.5,37.5C 383.67,38.8221 383.337,39.9887 382.5,41C 378.68,41.2348 375.013,42.0682 371.5,43.5C 370.328,43.0814 369.328,42.4147 368.5,41.5C 367.266,43.3983 367.599,45.065 369.5,46.5C 366.927,49.3701 363.927,50.5367 360.5,50C 360.004,51.9964 359.004,53.6631 357.5,55C 354.854,55.4974 352.187,55.6641 349.5,55.5C 349.649,56.552 349.483,57.552 349,58.5C 348.667,58.1667 348.333,57.8333 348,57.5C 344.114,60.5368 340.281,63.7035 336.5,67C 334.19,67.4966 331.857,67.6633 329.5,67.5C 329.5,68.8333 329.5,70.1667 329.5,71.5C 328.127,71.3433 326.793,71.51 325.5,72C 325.833,72.3333 326.167,72.6667 326.5,73C 321.261,76.247 315.594,78.4137 309.5,79.5C 309.67,80.8221 309.337,81.9887 308.5,83C 302.083,85.711 296.083,89.211 290.5,93.5C 289.833,92.8333 289.167,92.1667 288.5,91.5C 287.756,92.9905 287.09,94.4905 286.5,96C 254.842,114.225 223.176,132.391 191.5,150.5C 189.577,151.308 187.577,151.808 185.5,152C 184.284,153.594 182.951,155.094 181.5,156.5C 164.988,164.737 149.321,173.903 134.5,184C 131,186.057 127.5,187.223 124,187.5C 123.691,188.766 123.191,189.933 122.5,191C 122.728,191.399 123.062,191.565 123.5,191.5C 110.576,199.901 97.2427,207.734 83.5,215C 81.9632,216.11 81.2965,217.61 81.5,219.5C 80.7784,219.082 80.2784,218.416 80,217.5C 79.5,335.5 79.3333,453.5 79.5,571.5C 80.1667,574.167 80.8333,576.833 81.5,579.5C 82.8333,579.5 84.1667,579.5 85.5,579.5C 85.5,580.833 85.5,582.167 85.5,583.5C 81.1282,583.521 79.4616,585.521 80.5,589.5C 82.7656,587.129 85.2656,585.129 88,583.5C 91.0064,585.963 94.173,585.963 97.5,583.5C 98.1667,583.833 98.8333,584.167 99.5,584.5C 97.8442,586.329 95.8442,587.663 93.5,588.5C 85.8975,590.691 78.2308,592.191 70.5,593C 70.8333,592.667 71.1667,592.333 71.5,592C 69.1902,591.503 66.8568,591.337 64.5,591.5C 60.8474,590.37 57.514,588.537 54.5,586C 55.8333,585.333 55.8333,584.667 54.5,584C 60.9026,582.577 60.5692,581.743 53.5,581.5C 53.5,454.167 53.5,326.833 53.5,199.5C 58.2045,197.368 62.8711,195.035 67.5,192.5C 69.396,191.534 71.396,191.201 73.5,191.5C 73.5,190.167 73.5,188.833 73.5,187.5C 77.8737,184.984 82.5404,182.984 87.5,181.5C 87.281,180.325 87.6143,179.325 88.5,178.5C 95.8668,174.97 102.867,170.804 109.5,166C 116.491,164.671 122.491,161.505 127.5,156.5C 144.544,148.753 160.544,139.42 175.5,128.5C 180.167,126.5 184.833,124.5 189.5,122.5C 195.844,118.996 201.844,114.996 207.5,110.5C 219.534,105.156 230.867,98.823 241.5,91.5C 261.858,79.9335 282.024,68.2668 302,56.5C 302.333,56.8333 302.667,57.1667 303,57.5C 304.864,56.0361 307.031,55.0361 309.5,54.5C 311.5,52.5 313.5,50.5 315.5,48.5C 338.092,35.8665 360.759,23.1998 383.5,10.5C 384.833,10.1667 386.167,9.83333 387.5,9.5C 390.521,10.2757 393.521,11.1091 396.5,12C 399.752,15.3184 403.419,16.8184 407.5,16.5 Z"/></g>
<g><path style="opacity:0.69" fill="#2807de" d="M 407.5,16.5 C 403.419,16.8184 399.752,15.3184 396.5,12C 393.521,11.1091 390.521,10.2757 387.5,9.5C 386.167,9.83333 384.833,10.1667 383.5,10.5C 360.759,23.1998 338.092,35.8665 315.5,48.5C 313.5,50.5 311.5,52.5 309.5,54.5C 307.031,55.0361 304.864,56.0361 303,57.5C 302.667,57.1667 302.333,56.8333 302,56.5C 282.024,68.2668 261.858,79.9335 241.5,91.5C 241.5,90.5 241.5,89.5 241.5,88.5C 290.104,60.5269 338.771,32.5269 387.5,4.5C 394.468,8.16445 401.135,12.1644 407.5,16.5 Z"/></g>
<g><path style="opacity:0.698" fill="#2a09db" d="M 409.5,17.5 C 491.803,64.3177 573.803,111.651 655.5,159.5C 653.473,159.662 651.473,159.495 649.5,159C 639.799,152.317 629.466,146.984 618.5,143C 618.833,142.667 619.167,142.333 619.5,142C 618.019,141.02 616.685,139.853 615.5,138.5C 609.494,136.168 604.16,132.834 599.5,128.5C 579.798,119.424 561.131,108.757 543.5,96.5C 536.558,92.3561 529.224,89.3561 521.5,87.5C 521.5,86.1667 521.5,84.8333 521.5,83.5C 517.073,82.7025 513.239,80.7025 510,77.5C 507.922,78.943 507.089,78.2763 507.5,75.5C 503.314,74.4106 499.314,72.7439 495.5,70.5C 485.491,64.4962 475.491,58.4962 465.5,52.5C 462.894,51.3483 460.227,51.1816 457.5,52C 458.696,52.6543 458.696,53.1543 457.5,53.5C 456.713,52.7579 456.047,51.9246 455.5,51C 456.451,50.2825 456.617,49.4491 456,48.5C 454.601,47.7734 453.101,47.2734 451.5,47C 452.641,46.2588 452.641,45.4255 451.5,44.5C 447.835,43.003 444.502,41.003 441.5,38.5C 439.604,37.5344 437.604,37.2011 435.5,37.5C 435.67,36.1779 435.337,35.0113 434.5,34C 426.58,30.0724 418.914,25.7391 411.5,21C 410.177,20.1841 409.511,19.0174 409.5,17.5 Z"/></g>
<g><path style="opacity:0.42" fill="#1601df" d="M 578.5,149.5 C 556.832,137.668 535.498,125.335 514.5,112.5C 514.56,111.957 514.893,111.624 515.5,111.5C 521.035,115.353 527.035,118.353 533.5,120.5C 537.12,124.977 541.787,127.31 547.5,127.5C 547.33,128.822 547.663,129.989 548.5,131C 552.843,133.055 557.176,135.222 561.5,137.5C 563.334,136.246 565.334,135.579 567.5,135.5C 567.67,136.822 567.337,137.989 566.5,139C 570.355,142.019 574.355,144.853 578.5,147.5C 579.773,148.257 579.773,148.923 578.5,149.5 Z"/></g>
<g><path style="opacity:0.341" fill="#1a01df" d="M 510.5,110.5 C 469.648,86.9073 428.648,63.5739 387.5,40.5C 299.489,90.8509 211.489,141.184 123.5,191.5C 123.062,191.565 122.728,191.399 122.5,191C 123.191,189.933 123.691,188.766 124,187.5C 127.5,187.223 131,186.057 134.5,184C 149.321,173.903 164.988,164.737 181.5,156.5C 182.951,155.094 184.284,153.594 185.5,152C 187.577,151.808 189.577,151.308 191.5,150.5C 223.176,132.391 254.842,114.225 286.5,96C 287.09,94.4905 287.756,92.9905 288.5,91.5C 289.167,92.1667 289.833,92.8333 290.5,93.5C 296.083,89.211 302.083,85.711 308.5,83C 309.337,81.9887 309.67,80.8221 309.5,79.5C 315.594,78.4137 321.261,76.247 326.5,73C 326.167,72.6667 325.833,72.3333 325.5,72C 326.793,71.51 328.127,71.3433 329.5,71.5C 329.5,70.1667 329.5,68.8333 329.5,67.5C 331.857,67.6633 334.19,67.4966 336.5,67C 340.281,63.7035 344.114,60.5368 348,57.5C 348.333,57.8333 348.667,58.1667 349,58.5C 349.483,57.552 349.649,56.552 349.5,55.5C 352.187,55.6641 354.854,55.4974 357.5,55C 359.004,53.6631 360.004,51.9964 360.5,50C 363.927,50.5367 366.927,49.3701 369.5,46.5C 367.599,45.065 367.266,43.3983 368.5,41.5C 369.328,42.4147 370.328,43.0814 371.5,43.5C 375.013,42.0682 378.68,41.2348 382.5,41C 383.337,39.9887 383.67,38.8221 383.5,37.5C 386.247,37.1866 388.914,37.52 391.5,38.5C 397.404,43.7303 404.071,47.7303 411.5,50.5C 429.491,62.3333 448.158,72.9999 467.5,82.5C 470.756,84.8076 474.09,87.1409 477.5,89.5C 479.06,90.6071 480.56,90.6071 482,89.5C 484.151,90.8118 485.651,92.6451 486.5,95C 494.167,99.3333 501.833,103.667 509.5,108C 510.999,108.838 511.332,109.671 510.5,110.5 Z"/></g>
<g><path style="opacity:0.506" fill="#3f1ddd" d="M 241.5,88.5 C 241.5,89.5 241.5,90.5 241.5,91.5C 230.867,98.823 219.534,105.156 207.5,110.5C 201.844,114.996 195.844,118.996 189.5,122.5C 184.833,124.5 180.167,126.5 175.5,128.5C 160.544,139.42 144.544,148.753 127.5,156.5C 122.491,161.505 116.491,164.671 109.5,166C 102.867,170.804 95.8668,174.97 88.5,178.5C 87.6143,179.325 87.281,180.325 87.5,181.5C 82.5404,182.984 77.8737,184.984 73.5,187.5C 73.5,188.833 73.5,190.167 73.5,191.5C 71.396,191.201 69.396,191.534 67.5,192.5C 62.8711,195.035 58.2045,197.368 53.5,199.5C 52.8333,199.5 52.1667,199.5 51.5,199.5C 53.4747,196.654 56.1413,194.487 59.5,193C 120.389,158.394 181.056,123.561 241.5,88.5 Z"/></g>
<g><path style="opacity:0.578" fill="#1301e1" d="M 639.5,184.5 C 620.532,174.35 601.865,163.683 583.5,152.5C 584.251,151.427 585.251,151.26 586.5,152C 590.797,154.149 595.13,156.315 599.5,158.5C 611.535,167.028 624.202,174.528 637.5,181C 638.5,182 639.5,183 640.5,184C 640.272,184.399 639.938,184.565 639.5,184.5 Z"/></g>
<g><path style="opacity:0.796" fill="#a5a6b8" d="M 403.5,192.5 C 403.167,193.833 402.833,195.167 402.5,196.5C 400.521,193.901 398.521,191.235 396.5,188.5C 395.702,188.957 395.369,189.624 395.5,190.5C 394.212,188.965 394.212,187.299 395.5,185.5C 398.816,187.182 401.483,189.515 403.5,192.5 Z"/></g>
<g><path style="opacity:0.11" fill="#d0dbe3" d="M 394.5,196.5 C 395.833,197.167 395.833,197.167 394.5,196.5 Z"/></g>
<g><path style="opacity:0.396" fill="#909bb3" d="M 377.5,201.5 C 376.833,202.167 376.167,202.833 375.5,203.5C 373.139,203.326 370.806,202.993 368.5,202.5C 359.835,200.667 351.168,199.167 342.5,198C 345.298,199.453 348.298,200.453 351.5,201C 346.499,201.251 341.499,201.084 336.5,200.5C 336.5,199.833 336.5,199.167 336.5,198.5C 339.337,197.889 342.004,196.889 344.5,195.5C 355.298,198.614 366.298,200.614 377.5,201.5 Z"/></g>
<g><path style="opacity:0.968" fill="#eceff3" d="M 397.5,193.5 C 400.47,197.32 403.304,201.32 406,205.5C 406.788,207.165 407.122,208.831 407,210.5C 396.532,208.106 386.032,205.773 375.5,203.5C 376.167,202.833 376.833,202.167 377.5,201.5C 383.705,200.064 390.038,199.231 396.5,199C 398.428,197.319 398.761,195.486 397.5,193.5 Z"/></g>
<g><path style="opacity:0.735" fill="#260cdf" d="M 655.5,159.5 C 675.144,170.323 694.811,181.157 714.5,192C 716.515,193.555 716.848,195.389 715.5,197.5C 705.742,201.878 696.076,206.545 686.5,211.5C 671.344,203.422 656.344,195.089 641.5,186.5C 641.369,185.761 641.536,185.094 642,184.5C 656.195,192.846 670.695,200.513 685.5,207.5C 692.015,206.338 698.015,204.338 703.5,201.5C 703.5,200.167 703.5,198.833 703.5,197.5C 706.247,197.813 708.914,197.48 711.5,196.5C 709.995,195.158 709.328,193.492 709.5,191.5C 707.396,191.799 705.396,191.466 703.5,190.5C 698.955,186.059 693.621,182.892 687.5,181C 678.276,175.225 668.943,169.725 659.5,164.5C 657.739,163.083 656.406,161.417 655.5,159.5 Z"/></g>
<g><path style="opacity:0.991" fill="#eff4f5" d="M 403.5,192.5 C 407.22,192.564 410.886,193.064 414.5,194C 424.606,201.382 435.94,205.382 448.5,206C 451.554,208.194 454.888,209.861 458.5,211C 466.561,212.035 474.394,213.869 482,216.5C 482.383,215.944 482.883,215.611 483.5,215.5C 483.187,218.247 483.52,220.914 484.5,223.5C 491.221,230.221 497.887,236.887 504.5,243.5C 504.833,245.833 505.167,248.167 505.5,250.5C 505.325,254.778 504.325,258.778 502.5,262.5C 503.246,266.132 503.579,269.798 503.5,273.5C 495.785,273.121 492.452,269.121 493.5,261.5C 491.833,261.5 490.167,261.5 488.5,261.5C 488.261,259.533 488.594,257.699 489.5,256C 487.689,256.707 485.689,257.207 483.5,257.5C 484.3,255.318 485.8,253.651 488,252.5C 487.471,248.922 488.638,245.756 491.5,243C 488.748,240.316 486.081,237.65 483.5,235C 481.975,233.991 480.308,233.491 478.5,233.5C 480.118,232.549 481.451,231.216 482.5,229.5C 471.857,223.204 461.19,216.871 450.5,210.5C 448.167,211.833 445.833,213.167 443.5,214.5C 448.577,215.105 453.577,215.938 458.5,217C 464.897,221.727 471.564,226.06 478.5,230C 477.275,231.563 475.775,232.73 474,233.5C 458.8,226.602 443.3,220.602 427.5,215.5C 426.4,214.442 425.066,213.608 423.5,213C 419.057,212.472 414.723,211.472 410.5,210C 407.696,205.555 405.029,201.055 402.5,196.5C 402.833,195.167 403.167,193.833 403.5,192.5 Z"/></g>
<g><path style="opacity:0.996" fill="#1c3b6a" d="M 351.5,222.5 C 354.386,224.774 357.052,227.274 359.5,230C 357.522,233.936 356.355,238.103 356,242.5C 353.609,243.39 352.109,245.057 351.5,247.5C 350.163,248.315 349.163,249.482 348.5,251C 346.741,251.798 345.074,251.631 343.5,250.5C 341.885,247.55 339.885,244.884 337.5,242.5C 339.103,239.656 339.603,236.656 339,233.5C 336.512,229.848 333.679,226.514 330.5,223.5C 330.608,222.558 330.941,221.725 331.5,221C 334.812,220.062 338.145,219.229 341.5,218.5C 345.04,219.388 348.373,220.722 351.5,222.5 Z"/></g>
<g><path style="opacity:0.996" fill="#1a3e71" d="M 368.5,202.5 C 367.89,203.391 367.557,204.391 367.5,205.5C 367.249,207.17 366.582,208.67 365.5,210C 359.181,213.028 352.514,214.195 345.5,213.5C 343.883,212.028 341.883,211.361 339.5,211.5C 332.688,212.204 326.022,213.537 319.5,215.5C 319.835,221.54 322.501,226.206 327.5,229.5C 326.019,230.48 324.685,231.647 323.5,233C 311.531,232.545 301.031,236.045 292,243.5C 291.333,245.167 291.333,246.833 292,248.5C 294.861,251.085 297.361,253.918 299.5,257C 298.345,260.287 297.345,263.621 296.5,267C 297.788,272.714 300.288,273.547 304,269.5C 304.498,266.518 304.665,263.518 304.5,260.5C 311.194,261.304 314.028,258.304 313,251.5C 314.858,248.588 317.358,247.088 320.5,247C 321.759,247.923 323.092,248.757 324.5,249.5C 327.058,255.9 329.225,255.9 331,249.5C 332.011,248.663 333.178,248.33 334.5,248.5C 334.993,253.649 336.659,258.316 339.5,262.5C 341.052,266.911 342.552,271.244 344,275.5C 338.902,279.925 334.069,279.925 329.5,275.5C 326.671,276.747 324.005,278.247 321.5,280C 334.183,281.494 334.516,283.994 322.5,287.5C 322.762,286.022 322.429,284.689 321.5,283.5C 318.285,285.274 314.952,286.774 311.5,288C 309.667,292.828 307.167,297.328 304,301.5C 303.036,305.796 302.203,310.13 301.5,314.5C 296.559,317.803 291.226,320.303 285.5,322C 279.041,324.456 275.707,329.122 275.5,336C 276.622,341.731 276.622,347.398 275.5,353C 274.833,353.667 274.167,353.667 273.5,353C 272.274,351.365 270.941,349.865 269.5,348.5C 268.99,344.154 267.99,339.988 266.5,336C 258.648,335.217 250.815,334.384 243,333.5C 238.76,336.708 234.593,340.042 230.5,343.5C 228.202,347.859 227.036,352.526 227,357.5C 226.13,363.917 226.464,370.251 228,376.5C 229.719,378.557 231.719,380.224 234,381.5C 240.001,381.499 242.835,378.499 242.5,372.5C 246.182,372.335 249.848,372.501 253.5,373C 254.672,373.419 255.672,374.085 256.5,375C 254.226,379.684 252.726,384.517 252,389.5C 258.121,393.374 262.621,398.708 265.5,405.5C 265.113,406.72 264.28,407.387 263,407.5C 258.686,406.759 254.519,405.759 250.5,404.5C 250.808,402.076 250.474,399.743 249.5,397.5C 245.762,395.303 242.429,392.636 239.5,389.5C 233.045,389.775 227.545,387.775 223,383.5C 219.615,379.783 216.615,375.783 214,371.5C 213.015,369.634 212.515,367.634 212.5,365.5C 213.286,361.844 213.453,358.177 213,354.5C 210.406,347.532 208.573,340.365 207.5,333C 207.316,331.624 206.649,330.791 205.5,330.5C 205.457,327.133 205.79,323.799 206.5,320.5C 205.524,316.768 204.691,313.102 204,309.5C 212.978,290.381 224.478,273.048 238.5,257.5C 247.943,249.229 257.276,240.729 266.5,232C 287.614,216.758 310.947,206.258 336.5,200.5C 341.499,201.084 346.499,201.251 351.5,201C 348.298,200.453 345.298,199.453 342.5,198C 351.168,199.167 359.835,200.667 368.5,202.5 Z"/></g>
<g><path style="opacity:0.514" fill="#486389" d="M 336.5,198.5 C 336.5,199.167 336.5,199.833 336.5,200.5C 310.947,206.258 287.614,216.758 266.5,232C 257.276,240.729 247.943,249.229 238.5,257.5C 264.061,226.32 296.728,206.653 336.5,198.5 Z"/></g>
<g><path style="opacity:0.996" fill="#eef4f7" d="M 345.5,213.5 C 342.102,213.18 338.768,213.513 335.5,214.5C 340.995,214.804 345.995,216.471 350.5,219.5C 351.386,220.325 351.719,221.325 351.5,222.5C 348.373,220.722 345.04,219.388 341.5,218.5C 338.145,219.229 334.812,220.062 331.5,221C 330.941,221.725 330.608,222.558 330.5,223.5C 333.679,226.514 336.512,229.848 339,233.5C 339.603,236.656 339.103,239.656 337.5,242.5C 339.885,244.884 341.885,247.55 343.5,250.5C 345.074,251.631 346.741,251.798 348.5,251C 349.163,249.482 350.163,248.315 351.5,247.5C 350.829,248.847 350.829,250.014 351.5,251C 348.86,251.896 346.693,253.396 345,255.5C 343.667,254.833 342.667,253.833 342,252.5C 339.752,255.351 338.918,258.685 339.5,262.5C 336.659,258.316 334.993,253.649 334.5,248.5C 333.178,248.33 332.011,248.663 331,249.5C 329.225,255.9 327.058,255.9 324.5,249.5C 323.092,248.757 321.759,247.923 320.5,247C 317.358,247.088 314.858,248.588 313,251.5C 314.028,258.304 311.194,261.304 304.5,260.5C 304.665,263.518 304.498,266.518 304,269.5C 300.288,273.547 297.788,272.714 296.5,267C 297.345,263.621 298.345,260.287 299.5,257C 297.361,253.918 294.861,251.085 292,248.5C 291.333,246.833 291.333,245.167 292,243.5C 301.031,236.045 311.531,232.545 323.5,233C 324.685,231.647 326.019,230.48 327.5,229.5C 322.501,226.206 319.835,221.54 319.5,215.5C 326.022,213.537 332.688,212.204 339.5,211.5C 341.883,211.361 343.883,212.028 345.5,213.5 Z"/></g>
<g><path style="opacity:0.996" fill="#273a64" d="M 309.5,237.5 C 312.518,237.335 315.518,237.502 318.5,238C 316.611,240.959 314.611,243.792 312.5,246.5C 309.527,244.853 306.86,242.853 304.5,240.5C 306.145,239.304 307.811,238.304 309.5,237.5 Z"/></g>
<g><path style="opacity:0.996" fill="#23375e" d="M 325.5,236.5 C 328.908,235.828 331.575,236.828 333.5,239.5C 329.773,243.501 326.106,243.335 322.5,239C 323.571,238.148 324.571,237.315 325.5,236.5 Z"/></g>
<g><path style="opacity:0.969" fill="#384053" d="M 402.5,196.5 C 405.029,201.055 407.696,205.555 410.5,210C 414.723,211.472 419.057,212.472 423.5,213C 425.066,213.608 426.4,214.442 427.5,215.5C 443.3,220.602 458.8,226.602 474,233.5C 475.775,232.73 477.275,231.563 478.5,230C 471.564,226.06 464.897,221.727 458.5,217C 453.577,215.938 448.577,215.105 443.5,214.5C 445.833,213.167 448.167,211.833 450.5,210.5C 461.19,216.871 471.857,223.204 482.5,229.5C 481.451,231.216 480.118,232.549 478.5,233.5C 467.89,243.135 456.557,251.802 444.5,259.5C 443.262,259.19 443.262,258.69 444.5,258C 435.566,256.476 426.566,255.642 417.5,255.5C 417.5,256.833 417.5,258.167 417.5,259.5C 418.38,266.149 418.546,272.816 418,279.5C 417.817,276.635 417.317,273.969 416.5,271.5C 416.806,268.615 416.473,265.948 415.5,263.5C 415.5,260.5 415.5,257.5 415.5,254.5C 409.155,254.347 402.822,254.014 396.5,253.5C 392.074,252.464 387.74,252.63 383.5,254C 375.922,261.418 367.922,268.251 359.5,274.5C 355.561,277.262 351.728,280.262 348,283.5C 347.312,284.332 347.479,284.998 348.5,285.5C 364.878,289.625 381.211,293.959 397.5,298.5C 399.277,299.6 401.277,300.434 403.5,301C 402.207,301.49 400.873,301.657 399.5,301.5C 387.407,297.393 375.074,294.06 362.5,291.5C 358.761,289.898 354.761,288.898 350.5,288.5C 348.833,288.5 347.167,288.5 345.5,288.5C 344.508,288.672 343.842,288.338 343.5,287.5C 344.224,285.782 344.891,283.948 345.5,282C 356.453,274.048 367.12,265.715 377.5,257C 380.299,254.877 382.299,252.21 383.5,249C 385.167,248.667 386.833,248.333 388.5,248C 395.905,242.212 403.738,237.045 412,232.5C 412.103,225.189 410.27,218.355 406.5,212C 394.468,209.693 382.468,207.193 370.5,204.5C 369.416,204.685 368.416,205.018 367.5,205.5C 367.557,204.391 367.89,203.391 368.5,202.5C 370.806,202.993 373.139,203.326 375.5,203.5C 386.032,205.773 396.532,208.106 407,210.5C 407.122,208.831 406.788,207.165 406,205.5C 403.304,201.32 400.47,197.32 397.5,193.5C 396.094,193.027 395.427,192.027 395.5,190.5C 395.369,189.624 395.702,188.957 396.5,188.5C 398.521,191.235 400.521,193.901 402.5,196.5 Z M 396.5,244.5 C 397.239,244.369 397.906,244.536 398.5,245C 397.619,245.708 396.953,246.542 396.5,247.5C 395.167,247.5 394.5,246.833 394.5,245.5C 395.492,245.672 396.158,245.338 396.5,244.5 Z M 428.5,217.5 C 433.642,219.794 438.975,221.794 444.5,223.5C 449.377,225.994 454.044,228.661 458.5,231.5C 457.994,234.197 456.661,236.364 454.5,238C 454.833,238.333 455.167,238.667 455.5,239C 443.399,243.618 431.066,246.118 418.5,246.5C 417.509,242.965 416.843,239.632 416.5,236.5C 416.629,234.784 416.962,233.117 417.5,231.5C 415.507,226.178 413.507,220.845 411.5,215.5C 412.667,215.167 413.833,214.833 415,214.5C 419.496,215.566 423.996,216.566 428.5,217.5 Z"/></g>
<g><path style="opacity:0.895" fill="#e7ebed" d="M 394.5,245.5 C 394.5,246.833 395.167,247.5 396.5,247.5C 400.213,244.463 404.213,241.796 408.5,239.5C 409.386,238.675 409.719,237.675 409.5,236.5C 410.708,235.766 412.041,235.433 413.5,235.5C 414.074,241.484 414.407,247.484 414.5,253.5C 405.785,252.46 397.118,251.293 388.5,250C 390.66,248.668 392.66,247.168 394.5,245.5 Z"/></g>
<g><path style="opacity:0.957" fill="#eff1f3" d="M 461.5,230.5 C 465.037,231.267 468.371,232.6 471.5,234.5C 472.521,235.002 472.688,235.668 472,236.5C 464.167,242.333 456.333,248.167 448.5,254C 437.811,254.709 427.144,254.542 416.5,253.5C 415.867,247.654 415.867,241.987 416.5,236.5C 416.843,239.632 417.509,242.965 418.5,246.5C 431.066,246.118 443.399,243.618 455.5,239C 455.167,238.667 454.833,238.333 454.5,238C 456.661,236.364 457.994,234.197 458.5,231.5C 459.609,231.443 460.609,231.11 461.5,230.5 Z"/></g>
<g><path style="opacity:0.22" fill="#989fa9" d="M 409.5,236.5 C 409.719,237.675 409.386,238.675 408.5,239.5C 404.213,241.796 400.213,244.463 396.5,247.5C 396.953,246.542 397.619,245.708 398.5,245C 397.906,244.536 397.239,244.369 396.5,244.5C 400.295,241.095 404.628,238.429 409.5,236.5 Z"/></g>
<g><path style="opacity:0.259" fill="#768090" d="M 444.5,223.5 C 450.566,225.039 456.233,227.372 461.5,230.5C 460.609,231.11 459.609,231.443 458.5,231.5C 454.044,228.661 449.377,225.994 444.5,223.5 Z"/></g>
<g><path style="opacity:0.329" fill="#767e91" d="M 427.5,215.5 C 427.833,216.167 428.167,216.833 428.5,217.5C 423.996,216.566 419.496,215.566 415,214.5C 413.833,214.833 412.667,215.167 411.5,215.5C 413.507,220.845 415.507,226.178 417.5,231.5C 414.691,227.959 412.524,223.959 411,219.5C 410.338,217.187 409.838,214.854 409.5,212.5C 415.553,213.18 421.553,214.18 427.5,215.5 Z"/></g>
<g><path style="opacity:0.185" fill="#7053c7" d="M 751.5,252.5 C 751.5,253.5 751.5,254.5 751.5,255.5C 729.5,255.5 707.5,255.5 685.5,255.5C 685.414,254.504 685.748,253.671 686.5,253C 708.164,252.5 729.831,252.333 751.5,252.5 Z"/></g>
<g><path style="opacity:0.196" fill="#7255c8" d="M 849.5,255.5 C 832.466,256.152 815.8,255.485 799.5,253.5C 815.759,252.349 832.093,252.183 848.5,253C 849.252,253.671 849.586,254.504 849.5,255.5 Z"/></g>
<g><path style="opacity:0.684" fill="#6345e6" d="M 963.5,256.5 C 963.083,257.124 962.416,257.457 961.5,257.5C 949.148,252.884 936.482,252.384 923.5,256C 920.378,257.976 917.211,259.809 914,261.5C 913.601,261.272 913.435,260.938 913.5,260.5C 916.475,257.339 920.142,255.172 924.5,254C 937.919,250.346 950.919,251.18 963.5,256.5 Z"/></g>
<g><path style="opacity:0.145" fill="#6648cd" d="M 1015.5,252.5 C 1018.39,252.194 1021.05,252.527 1023.5,253.5C 1021.36,255.369 1018.7,256.036 1015.5,255.5C 1015.5,254.5 1015.5,253.5 1015.5,252.5 Z"/></g>
<g><path style="opacity:0.514" fill="#6143d1" d="M 1081.5,253.5 C 1081.5,254.833 1080.83,255.5 1079.5,255.5C 1077.5,255.5 1075.5,255.5 1073.5,255.5C 1072.51,255.672 1071.84,255.338 1071.5,254.5C 1071.61,253.883 1071.94,253.383 1072.5,253C 1075.7,252.195 1078.7,252.362 1081.5,253.5 Z"/></g>
<g><path style="opacity:0.996" fill="#4227b2" d="M 1201.5,252.5 C 1204.28,252.279 1206.95,252.612 1209.5,253.5C 1209.5,254.833 1208.83,255.5 1207.5,255.5C 1205.5,255.5 1203.5,255.5 1201.5,255.5C 1201.5,254.5 1201.5,253.5 1201.5,252.5 Z"/></g>
<g><path style="opacity:0.964" fill="#eef1f3" d="M 396.5,253.5 C 402.822,254.014 409.155,254.347 415.5,254.5C 415.5,257.5 415.5,260.5 415.5,263.5C 415.816,266.978 415.316,270.312 414,273.5C 412.659,270.978 411.826,268.311 411.5,265.5C 410.5,265.5 409.5,265.5 408.5,265.5C 404.833,261.167 400.833,257.167 396.5,253.5 Z"/></g>
<g><path style="opacity:0.985" fill="#2802f3" d="M 751.5,252.5 C 752.117,252.611 752.617,252.944 753,253.5C 755.148,259.62 753.148,263.287 747,264.5C 739.878,263.552 732.712,263.219 725.5,263.5C 724.234,288.621 724.234,313.954 725.5,339.5C 725.24,341.187 724.573,342.687 723.5,344C 720.5,344.667 717.5,344.667 714.5,344C 713.085,339.823 712.418,335.489 712.5,331C 712.472,309.204 712.805,287.537 713.5,266C 713.095,265.055 712.428,264.388 711.5,264C 703.167,263.667 694.833,263.333 686.5,263C 684.354,260.643 684.021,258.143 685.5,255.5C 707.5,255.5 729.5,255.5 751.5,255.5C 751.5,254.5 751.5,253.5 751.5,252.5 Z"/></g>
<g><path style="opacity:0.982" fill="#2901fb" d="M 809.5,293.5 C 810.167,293.5 810.833,293.5 811.5,293.5C 811.5,294.833 811.5,296.167 811.5,297.5C 822.044,295.7 832.711,295.033 843.5,295.5C 843.5,296.833 843.5,298.167 843.5,299.5C 831.587,300.491 819.754,300.824 808,300.5C 807.833,306.333 807.667,312.167 807.5,318C 807.504,324.207 808.171,330.04 809.5,335.5C 821.789,337.48 834.456,338.147 847.5,337.5C 847.5,339.167 847.5,340.833 847.5,342.5C 832.167,342.5 816.833,342.5 801.5,342.5C 800.908,328.716 801.575,315.05 803.5,301.5C 801.029,297.878 801.029,294.211 803.5,290.5C 802.064,283.579 801.064,276.579 800.5,269.5C 799.828,268.051 799.161,266.718 798.5,265.5C 798.5,264.833 798.5,264.167 798.5,263.5C 799.5,263.5 800.5,263.5 801.5,263.5C 801.5,261.5 801.5,259.5 801.5,257.5C 816.833,257.5 832.167,257.5 847.5,257.5C 847.439,260.05 846.106,261.55 843.5,262C 833.472,262.784 823.472,262.618 813.5,261.5C 811.803,261.899 810.137,262.399 808.5,263C 807.845,268.087 807.512,273.254 807.5,278.5C 807.506,283.881 808.172,288.881 809.5,293.5 Z"/></g>
<g><path style="opacity:0.6" fill="#5635e9" d="M 1337.5,269.5 C 1336.88,269.611 1336.38,269.944 1336,270.5C 1330.73,260.777 1322.56,255.444 1311.5,254.5C 1306.17,253.167 1300.83,253.167 1295.5,254.5C 1289.94,255.622 1284.61,257.289 1279.5,259.5C 1279.5,260.833 1279.5,262.167 1279.5,263.5C 1275.76,264.218 1272.76,266.218 1270.5,269.5C 1269.89,269.376 1269.56,269.043 1269.5,268.5C 1277.56,256.986 1288.73,251.32 1303,251.5C 1313.87,251.438 1323.53,254.771 1332,261.5C 1334.1,264.051 1335.93,266.717 1337.5,269.5 Z"/></g>
<g><path style="opacity:0.464" fill="#eaf1f3" d="M 444.5,259.5 C 442.852,260.927 440.852,261.76 438.5,262C 431.905,262.566 425.572,262.399 419.5,261.5C 419.5,260.167 418.833,259.5 417.5,259.5C 417.5,258.167 417.5,256.833 417.5,255.5C 426.566,255.642 435.566,256.476 444.5,258C 443.262,258.69 443.262,259.19 444.5,259.5 Z"/></g>
<g><path style="opacity:0.368" fill="#2304eb" d="M 799.5,253.5 C 815.8,255.485 832.466,256.152 849.5,255.5C 849.663,257.857 849.497,260.19 849,262.5C 847.333,263.167 845.667,263.833 844,264.5C 832.91,263.347 821.743,263.18 810.5,264C 810.441,272.29 810.441,280.79 810.5,289.5C 809.566,290.568 809.232,291.901 809.5,293.5C 808.172,288.881 807.506,283.881 807.5,278.5C 807.512,273.254 807.845,268.087 808.5,263C 810.137,262.399 811.803,261.899 813.5,261.5C 823.472,262.618 833.472,262.784 843.5,262C 846.106,261.55 847.439,260.05 847.5,257.5C 832.167,257.5 816.833,257.5 801.5,257.5C 801.5,259.5 801.5,261.5 801.5,263.5C 800.5,263.5 799.5,263.5 798.5,263.5C 798.187,259.958 798.521,256.625 799.5,253.5 Z"/></g>
<g><path style="opacity:0.921" fill="#2405d2" d="M 81.5,219.5 C 81.1688,336.237 81.5021,452.904 82.5,569.5C 80.3023,569.409 79.9689,570.075 81.5,571.5C 80.8333,571.5 80.1667,571.5 79.5,571.5C 79.3333,453.5 79.5,335.5 80,217.5C 80.2784,218.416 80.7784,219.082 81.5,219.5 Z"/></g>
<g><path style="opacity:0.996" fill="#2503ee" d="M 1337.5,269.5 C 1342.87,278.469 1345.54,288.302 1345.5,299C 1346.17,319.005 1337.84,333.671 1320.5,343C 1309.16,346.333 1297.83,346.333 1286.5,343C 1282.11,341.418 1278.44,338.918 1275.5,335.5C 1266.68,327.189 1262.18,316.856 1262,304.5C 1260.76,291.597 1263.26,279.597 1269.5,268.5C 1269.56,269.043 1269.89,269.376 1270.5,269.5C 1272.76,266.218 1275.76,264.218 1279.5,263.5C 1279.5,262.167 1279.5,260.833 1279.5,259.5C 1284.61,257.289 1289.94,255.622 1295.5,254.5C 1300.83,253.167 1306.17,253.167 1311.5,254.5C 1322.56,255.444 1330.73,260.777 1336,270.5C 1336.38,269.944 1336.88,269.611 1337.5,269.5 Z M 1316.5,333.5 C 1312.49,334.035 1308.49,334.702 1304.5,335.5C 1300.17,334.723 1295.84,334.056 1291.5,333.5C 1286.93,331.269 1282.93,328.269 1279.5,324.5C 1270.8,305.948 1271.64,287.948 1282,270.5C 1290.79,262.924 1300.96,260.424 1312.5,263C 1323.17,266.342 1329.67,273.509 1332,284.5C 1335.41,299.043 1333.41,312.71 1326,325.5C 1323.23,328.783 1320.06,331.45 1316.5,333.5 Z"/></g>
<g><path style="opacity:0.146" fill="#738795" d="M 417.5,259.5 C 418.833,259.5 419.5,260.167 419.5,261.5C 419.808,267.086 420.474,272.586 421.5,278C 420.944,278.383 420.611,278.883 420.5,279.5C 419.533,280.806 418.199,281.473 416.5,281.5C 415.788,278.258 415.788,274.925 416.5,271.5C 417.317,273.969 417.817,276.635 418,279.5C 418.546,272.816 418.38,266.149 417.5,259.5 Z"/></g>
<g><path style="opacity:0.416" fill="#cbe7e9" d="M 415.5,263.5 C 416.473,265.948 416.806,268.615 416.5,271.5C 415.788,274.925 415.788,278.258 416.5,281.5C 413.198,282.608 409.865,283.941 406.5,285.5C 404.132,288.311 401.798,290.977 399.5,293.5C 399.328,291.508 399.995,289.842 401.5,288.5C 400.388,287.735 399.721,286.735 399.5,285.5C 402.729,286.993 405.062,285.993 406.5,282.5C 405.975,281.808 405.308,281.308 404.5,281C 405.632,278.256 407.132,275.756 409,273.5C 409.722,270.739 409.555,268.073 408.5,265.5C 409.5,265.5 410.5,265.5 411.5,265.5C 411.826,268.311 412.659,270.978 414,273.5C 415.316,270.312 415.816,266.978 415.5,263.5 Z"/></g>
<g><path style="opacity:0.987" fill="#2a02f7" d="M 1183.5,303.5 C 1186.62,314.418 1192.29,323.752 1200.5,331.5C 1201.5,306.175 1201.83,280.842 1201.5,255.5C 1203.5,255.5 1205.5,255.5 1207.5,255.5C 1208.13,285.323 1207.47,314.99 1205.5,344.5C 1202.07,344.893 1198.9,344.227 1196,342.5C 1189.28,332.617 1182.78,322.617 1176.5,312.5C 1177.79,310.965 1177.79,309.299 1176.5,307.5C 1169.32,298.971 1163.32,289.638 1158.5,279.5C 1155.25,275.581 1152.08,271.581 1149,267.5C 1147.48,269.547 1146.65,271.881 1146.5,274.5C 1147.78,296.829 1147.78,319.163 1146.5,341.5C 1144.63,342.767 1142.8,342.767 1141,341.5C 1140.3,312.825 1140.46,284.159 1141.5,255.5C 1144.83,255.5 1148.17,255.5 1151.5,255.5C 1151.24,256.978 1151.57,258.311 1152.5,259.5C 1158.83,269.5 1165.17,279.5 1171.5,289.5C 1171.28,291.055 1170.61,292.389 1169.5,293.5C 1170.39,294.59 1171.39,294.59 1172.5,293.5C 1175.91,297.247 1179.57,300.58 1183.5,303.5 Z"/></g>
<g><path style="opacity:0.487" fill="#b7ece9" d="M 481.5,265.5 C 482.833,265.5 484.167,265.5 485.5,265.5C 484.965,268.238 485.965,270.072 488.5,271C 487.207,271.49 485.873,271.657 484.5,271.5C 483.862,274.508 483.529,277.508 483.5,280.5C 485.526,282.443 485.526,284.609 483.5,287C 484.094,287.464 484.761,287.631 485.5,287.5C 485.5,288.5 485.5,289.5 485.5,290.5C 482.413,289.127 481.079,286.961 481.5,284C 479.235,281.071 478.569,277.905 479.5,274.5C 477.129,272.046 476.962,269.379 479,266.5C 479.671,265.748 480.504,265.414 481.5,265.5 Z"/></g>
<g><path style="opacity:0.98" fill="#f6f6f6" d="M 359.5,274.5 C 358.316,275.688 358.316,276.855 359.5,278C 373.397,279.35 386.73,281.85 399.5,285.5C 399.721,286.735 400.388,287.735 401.5,288.5C 399.995,289.842 399.328,291.508 399.5,293.5C 399.923,295.781 399.256,297.448 397.5,298.5C 381.211,293.959 364.878,289.625 348.5,285.5C 347.479,284.998 347.312,284.332 348,283.5C 351.728,280.262 355.561,277.262 359.5,274.5 Z"/></g>
<g><path style="opacity:0.995" fill="#58d6da" d="M 420.5,279.5 C 434.134,282.823 439.8,291.49 437.5,305.5C 435.128,307.32 434.461,309.653 435.5,312.5C 434.209,312.263 433.209,312.596 432.5,313.5C 429.376,314.915 426.709,316.915 424.5,319.5C 424.167,319.5 423.833,319.5 423.5,319.5C 422.167,319.5 421.5,320.167 421.5,321.5C 420.833,321.5 420.167,321.5 419.5,321.5C 412.011,319.42 405.345,315.754 399.5,310.5C 399.5,307.5 399.5,304.5 399.5,301.5C 400.873,301.657 402.207,301.49 403.5,301C 401.277,300.434 399.277,299.6 397.5,298.5C 399.256,297.448 399.923,295.781 399.5,293.5C 401.798,290.977 404.132,288.311 406.5,285.5C 409.865,283.941 413.198,282.608 416.5,281.5C 418.199,281.473 419.533,280.806 420.5,279.5 Z"/></g>
<g><path style="opacity:1" fill="#e1f8f8" d="M 491.5,301.5 C 490.759,298.587 490.259,295.587 490,292.5C 488.53,291.733 487.03,291.067 485.5,290.5C 485.5,289.5 485.5,288.5 485.5,287.5C 488.173,287.316 488.84,286.149 487.5,284C 488.728,283.221 489.728,282.221 490.5,281C 489.678,278.566 489.344,276.066 489.5,273.5C 491.167,273.5 492.833,273.5 494.5,273.5C 494.086,278.074 493.419,282.574 492.5,287C 494.902,287.678 497.068,287.178 499,285.5C 499.5,285.833 500,286.167 500.5,286.5C 499.105,288.861 497.105,290.528 494.5,291.5C 496.322,293.01 498.322,294.343 500.5,295.5C 501.452,297.045 501.785,298.712 501.5,300.5C 498.14,300.616 494.807,300.949 491.5,301.5 Z"/></g>
<g><path style="opacity:0.153" fill="#7b8299" d="M 350.5,288.5 C 354.761,288.898 358.761,289.898 362.5,291.5C 361.167,291.5 360.5,292.167 360.5,293.5C 357.303,291.442 353.97,289.775 350.5,288.5 Z"/></g>
<g><path style="opacity:0.294" fill="#6f4dd5" d="M 810.5,289.5 C 821.372,290.821 832.372,290.821 843.5,289.5C 844.522,289.855 845.189,290.522 845.5,291.5C 845.082,292.222 844.416,292.722 843.5,293C 832.839,293.5 822.172,293.667 811.5,293.5C 810.833,293.5 810.167,293.5 809.5,293.5C 809.232,291.901 809.566,290.568 810.5,289.5 Z"/></g>
<g><path style="opacity:0.573" fill="#4f5869" d="M 343.5,287.5 C 343.842,288.338 344.508,288.672 345.5,288.5C 331.839,299.827 318.172,311.16 304.5,322.5C 304.5,321.167 304.5,319.833 304.5,318.5C 305.873,318.657 307.207,318.49 308.5,318C 319.45,306.882 331.116,296.715 343.5,287.5 Z"/></g>
<g><path style="opacity:0.995" fill="#2a02fa" d="M 1279.5,327.5 C 1279.72,328.735 1280.39,329.735 1281.5,330.5C 1284.85,332.175 1288.18,333.842 1291.5,335.5C 1296.93,337.281 1302.6,337.948 1308.5,337.5C 1311.52,337.335 1314.52,337.502 1317.5,338C 1318.97,338.71 1319.64,339.876 1319.5,341.5C 1315.3,341.382 1311.3,342.215 1307.5,344C 1304.17,344.667 1300.83,344.667 1297.5,344C 1290.07,341.466 1282.73,338.633 1275.5,335.5C 1273.02,331.212 1270.52,326.879 1268,322.5C 1266.61,315.142 1265.11,307.809 1263.5,300.5C 1265.55,295.919 1265.89,291.253 1264.5,286.5C 1266.04,285.378 1267.38,285.711 1268.5,287.5C 1268.83,286.833 1269.17,286.167 1269.5,285.5C 1268.01,283.028 1267.34,280.361 1267.5,277.5C 1268.82,277.67 1269.99,277.337 1271,276.5C 1272.09,278.385 1272.92,280.385 1273.5,282.5C 1270.38,297.764 1271.38,312.764 1276.5,327.5C 1277.53,326.209 1278.53,326.209 1279.5,327.5 Z"/></g>
<g><path style="opacity:0.489" fill="#2404e8" d="M 845.5,291.5 C 846.922,291.75 847.922,292.583 848.5,294C 848.457,296.5 848.123,299 847.5,301.5C 835.449,301.187 823.449,301.521 811.5,302.5C 810.177,312.993 810.177,323.326 811.5,333.5C 810.833,334.167 810.167,334.833 809.5,335.5C 808.171,330.04 807.504,324.207 807.5,318C 807.667,312.167 807.833,306.333 808,300.5C 819.754,300.824 831.587,300.491 843.5,299.5C 843.5,298.167 843.5,296.833 843.5,295.5C 832.711,295.033 822.044,295.7 811.5,297.5C 811.5,296.167 811.5,294.833 811.5,293.5C 822.172,293.667 832.839,293.5 843.5,293C 844.416,292.722 845.082,292.222 845.5,291.5 Z"/></g>
<g><path style="opacity:0.878" fill="#2702f1" d="M 1015.5,252.5 C 1015.5,253.5 1015.5,254.5 1015.5,255.5C 1018.7,256.036 1021.36,255.369 1023.5,253.5C 1024.5,265.989 1024.83,278.656 1024.5,291.5C 1023.96,291.56 1023.62,291.893 1023.5,292.5C 1039.5,293.833 1055.5,293.833 1071.5,292.5C 1071.04,291.702 1070.38,291.369 1069.5,291.5C 1070.15,279.068 1070.81,266.735 1071.5,254.5C 1071.84,255.338 1072.51,255.672 1073.5,255.5C 1072.39,284.39 1072.39,313.39 1073.5,342.5C 1075.5,342.5 1077.5,342.5 1079.5,342.5C 1079.5,313.5 1079.5,284.5 1079.5,255.5C 1080.83,255.5 1081.5,254.833 1081.5,253.5C 1082.66,283.331 1082.83,313.331 1082,343.5C 1078.33,344.833 1074.67,344.833 1071,343.5C 1070.5,329.837 1070.33,316.171 1070.5,302.5C 1055.5,302.333 1040.5,302.5 1025.5,303C 1024.68,316.425 1024.18,329.925 1024,343.5C 1020.93,344.617 1017.76,344.784 1014.5,344C 1013.34,313.905 1013.17,283.738 1014,253.5C 1014.38,252.944 1014.88,252.611 1015.5,252.5 Z"/></g>
<g><path style="opacity:0.993" fill="#2b01fd" d="M 1073.5,255.5 C 1075.5,255.5 1077.5,255.5 1079.5,255.5C 1079.5,284.5 1079.5,313.5 1079.5,342.5C 1077.5,342.5 1075.5,342.5 1073.5,342.5C 1072.39,313.39 1072.39,284.39 1073.5,255.5 Z"/></g>
<g><path style="opacity:0.741" fill="#876bee" d="M 1024.5,291.5 C 1039.5,291.5 1054.5,291.5 1069.5,291.5C 1070.38,291.369 1071.04,291.702 1071.5,292.5C 1055.5,293.833 1039.5,293.833 1023.5,292.5C 1023.62,291.893 1023.96,291.56 1024.5,291.5 Z"/></g>
<g><path style="opacity:0.972" fill="#f4f7f7" d="M 362.5,291.5 C 375.074,294.06 387.407,297.393 399.5,301.5C 399.5,304.5 399.5,307.5 399.5,310.5C 389.133,307.825 378.8,304.991 368.5,302C 365.579,299.251 362.912,296.417 360.5,293.5C 360.5,292.167 361.167,291.5 362.5,291.5 Z"/></g>
<g><path style="opacity:0.868" fill="#280be2" d="M 1183.5,303.5 C 1179.57,300.58 1175.91,297.247 1172.5,293.5C 1171.39,294.59 1170.39,294.59 1169.5,293.5C 1170.61,292.389 1171.28,291.055 1171.5,289.5C 1165.17,279.5 1158.83,269.5 1152.5,259.5C 1151.57,258.311 1151.24,256.978 1151.5,255.5C 1148.17,255.5 1144.83,255.5 1141.5,255.5C 1140.46,284.159 1140.3,312.825 1141,341.5C 1142.8,342.767 1144.63,342.767 1146.5,341.5C 1147.78,319.163 1147.78,296.829 1146.5,274.5C 1146.65,271.881 1147.48,269.547 1149,267.5C 1152.08,271.581 1155.25,275.581 1158.5,279.5C 1163.32,289.638 1169.32,298.971 1176.5,307.5C 1177.79,309.299 1177.79,310.965 1176.5,312.5C 1167.97,299.276 1159.3,286.11 1150.5,273C 1149.83,272.333 1149.17,272.333 1148.5,273C 1149.58,295.999 1149.75,319.166 1149,342.5C 1147.65,343.704 1145.98,344.371 1144,344.5C 1141.53,344.66 1139.36,343.993 1137.5,342.5C 1138.33,312.875 1138.83,283.209 1139,253.5C 1143.33,252.167 1147.67,252.167 1152,253.5C 1162.75,270.068 1173.25,286.735 1183.5,303.5 Z"/></g>
<g><path style="opacity:0.998" fill="#3713e2" d="M 1201.5,252.5 C 1201.5,253.5 1201.5,254.5 1201.5,255.5C 1201.83,280.842 1201.5,306.175 1200.5,331.5C 1192.29,323.752 1186.62,314.418 1183.5,303.5C 1188.48,310.777 1193.48,318.11 1198.5,325.5C 1198.44,302.545 1198.6,279.545 1199,256.5C 1199.2,254.68 1200.03,253.347 1201.5,252.5 Z"/></g>
<g><path style="opacity:0.996" fill="#2904f2" d="M 963.5,256.5 C 964.907,260.788 963.741,264.454 960,267.5C 947.585,261.068 935.085,260.901 922.5,267C 912.53,275.054 907.864,285.554 908.5,298.5C 907.984,309.45 911.15,319.117 918,327.5C 921.521,330.209 925.354,332.209 929.5,333.5C 929.082,334.222 928.416,334.722 927.5,335C 935.343,337.55 943.343,338.05 951.5,336.5C 955.161,335.73 958.495,334.397 961.5,332.5C 962.629,334.628 962.796,336.961 962,339.5C 961.682,341.061 960.849,342.228 959.5,343C 915.52,352.323 894.686,334.823 897,290.5C 898.135,277.88 903.635,267.88 913.5,260.5C 913.435,260.938 913.601,261.272 914,261.5C 917.211,259.809 920.378,257.976 923.5,256C 936.482,252.384 949.148,252.884 961.5,257.5C 962.416,257.457 963.083,257.124 963.5,256.5 Z"/></g>
<g><path style="opacity:0.996" fill="#57d7dc" d="M 483.5,215.5 C 486.425,215.46 489.091,216.293 491.5,218C 528.548,240.716 556.048,271.883 574,311.5C 579.464,325.227 584.131,339.227 588,353.5C 590.068,373.962 589.068,394.296 585,414.5C 581.704,425.683 579.038,437.017 577,448.5C 575.568,452.531 573.734,456.364 571.5,460C 569.973,461.368 568.473,461.868 567,461.5C 565.885,460 565.052,458.333 564.5,456.5C 565.301,448.882 565.801,441.216 566,433.5C 569.035,426.78 570.035,419.78 569,412.5C 567.989,411.663 566.822,411.33 565.5,411.5C 566.997,410.694 568.664,410.028 570.5,409.5C 571.833,408.5 571.833,407.5 570.5,406.5C 569.818,407.243 569.151,407.909 568.5,408.5C 566.735,407.539 564.735,407.205 562.5,407.5C 563.718,406.839 565.051,406.172 566.5,405.5C 563.514,400.199 560.514,394.865 557.5,389.5C 559.161,385.558 559.494,381.558 558.5,377.5C 557.707,377.931 556.873,378.265 556,378.5C 552.512,377.418 549.178,376.085 546,374.5C 539.469,375.892 532.969,377.226 526.5,378.5C 526.158,377.662 525.492,377.328 524.5,377.5C 523.5,377.5 522.5,377.5 521.5,377.5C 521.5,378.5 521.5,379.5 521.5,380.5C 521.737,381.791 521.404,382.791 520.5,383.5C 520.38,382.414 519.713,381.747 518.5,381.5C 513.109,383.797 507.609,385.797 502,387.5C 500.5,387 499,386.5 497.5,386C 492.302,380.467 486.802,375.3 481,370.5C 480.125,369.127 479.625,367.627 479.5,366C 479.874,361.889 480.04,357.722 480,353.5C 480.725,351.051 481.725,348.717 483,346.5C 485.405,344.597 487.239,342.264 488.5,339.5C 486.435,338.143 484.435,336.81 482.5,335.5C 483.93,335.421 485.264,335.754 486.5,336.5C 487.298,336.043 487.631,335.376 487.5,334.5C 488.404,335.209 488.737,336.209 488.5,337.5C 489.5,337.5 490.5,337.5 491.5,337.5C 492.161,333.215 493.494,329.215 495.5,325.5C 496.876,323.918 497.876,322.085 498.5,320C 493.526,314.877 491.193,308.71 491.5,301.5C 494.807,300.949 498.14,300.616 501.5,300.5C 501.785,298.712 501.452,297.045 500.5,295.5C 498.322,294.343 496.322,293.01 494.5,291.5C 497.105,290.528 499.105,288.861 500.5,286.5C 500,286.167 499.5,285.833 499,285.5C 497.068,287.178 494.902,287.678 492.5,287C 493.419,282.574 494.086,278.074 494.5,273.5C 492.833,273.5 491.167,273.5 489.5,273.5C 489.344,276.066 489.678,278.566 490.5,281C 489.728,282.221 488.728,283.221 487.5,284C 488.84,286.149 488.173,287.316 485.5,287.5C 484.761,287.631 484.094,287.464 483.5,287C 485.526,284.609 485.526,282.443 483.5,280.5C 483.529,277.508 483.862,274.508 484.5,271.5C 485.873,271.657 487.207,271.49 488.5,271C 485.965,270.072 484.965,268.238 485.5,265.5C 484.167,265.5 482.833,265.5 481.5,265.5C 482.078,262.72 482.745,260.053 483.5,257.5C 485.689,257.207 487.689,256.707 489.5,256C 488.594,257.699 488.261,259.533 488.5,261.5C 490.167,261.5 491.833,261.5 493.5,261.5C 492.452,269.121 495.785,273.121 503.5,273.5C 503.579,269.798 503.246,266.132 502.5,262.5C 504.325,258.778 505.325,254.778 505.5,250.5C 505.167,248.167 504.833,245.833 504.5,243.5C 497.887,236.887 491.221,230.221 484.5,223.5C 483.52,220.914 483.187,218.247 483.5,215.5 Z M 556.5,309.5 C 550.628,310.188 549.628,308.688 553.5,305C 550.634,303.543 547.634,303.21 544.5,304C 542.712,306.184 541.046,308.351 539.5,310.5C 538.742,312.981 538.742,315.648 539.5,318.5C 535.843,317.358 532.177,317.191 528.5,318C 526.288,316.372 525.954,314.372 527.5,312C 527.242,309.991 526.575,308.157 525.5,306.5C 526.209,305.596 527.209,305.263 528.5,305.5C 527.34,307.203 528.007,307.869 530.5,307.5C 530.5,306.5 530.5,305.5 530.5,304.5C 532.527,304.662 534.527,304.495 536.5,304C 538.283,302.933 538.783,301.433 538,299.5C 536.127,300.089 534.46,299.422 533,297.5C 532.251,296.365 532.417,295.365 533.5,294.5C 538.546,294.691 542.879,296.524 546.5,300C 549.486,299.872 552.486,299.872 555.5,300C 556.833,302.333 558.167,304.667 559.5,307C 558.429,307.852 557.429,308.685 556.5,309.5 Z"/></g>
<g><path style="opacity:0.447" fill="#a4e4e8" d="M 556.5,309.5 C 557.675,309.281 558.675,309.614 559.5,310.5C 552.678,311.818 546.011,311.818 539.5,310.5C 541.046,308.351 542.712,306.184 544.5,304C 547.634,303.21 550.634,303.543 553.5,305C 549.628,308.688 550.628,310.188 556.5,309.5 Z"/></g>
<g><path style="opacity:0.976" fill="#323943" d="M 518.5,294.5 C 520.32,298.787 521.987,303.12 523.5,307.5C 524.028,308.721 524.695,309.887 525.5,311C 524.906,311.464 524.239,311.631 523.5,311.5C 521.167,306.167 518.833,300.833 516.5,295.5C 516.082,294.778 515.416,294.278 514.5,294C 515.416,293.626 516.25,293.126 517,292.5C 517.278,293.416 517.778,294.082 518.5,294.5 Z"/></g>
<g><path style="opacity:0.998" fill="#edf7f9" d="M 516.5,295.5 C 518.833,300.833 521.167,306.167 523.5,311.5C 524.091,312.151 524.757,312.818 525.5,313.5C 517.157,317.345 508.491,320.011 499.5,321.5C 499.343,320.127 499.51,318.793 500,317.5C 500.308,318.308 500.808,318.975 501.5,319.5C 503.698,317.14 506.365,315.807 509.5,315.5C 509.497,311.844 510.497,308.511 512.5,305.5C 511.379,302.804 511.379,300.137 512.5,297.5C 513.524,296.147 514.857,295.48 516.5,295.5 Z"/></g>
<g><path style="opacity:0.985" fill="#ebf6f8" d="M 528.5,305.5 C 527.209,305.263 526.209,305.596 525.5,306.5C 524.833,306.833 524.167,307.167 523.5,307.5C 521.987,303.12 520.32,298.787 518.5,294.5C 521.771,293.09 524.771,293.756 527.5,296.5C 528.337,298.844 529.671,300.844 531.5,302.5C 530.452,303.548 529.452,304.548 528.5,305.5 Z"/></g>
<g><path style="opacity:0.994" fill="#f0faf9" d="M 536.5,276.5 C 538.199,276.34 539.866,276.506 541.5,277C 543.143,281.057 544.476,281.223 545.5,277.5C 550.297,279.279 554.297,282.279 557.5,286.5C 551.039,287.733 545.039,290.067 539.5,293.5C 537.528,292.695 536.028,291.361 535,289.5C 534.055,284.939 534.555,280.606 536.5,276.5 Z"/></g>
<g><path style="opacity:0.824" fill="#330fea" d="M 1209.5,253.5 C 1210.83,283.336 1210.83,313.336 1209.5,343.5C 1208.26,344.246 1206.93,344.579 1205.5,344.5C 1207.47,314.99 1208.13,285.323 1207.5,255.5C 1208.83,255.5 1209.5,254.833 1209.5,253.5 Z"/></g>
<g><path style="opacity:0.949" fill="#e5f2f4" d="M 437.5,305.5 C 448.432,310.966 459.432,316.466 470.5,322C 474.518,323.17 478.518,324.337 482.5,325.5C 486.97,325.068 491.303,325.068 495.5,325.5C 493.494,329.215 492.161,333.215 491.5,337.5C 490.5,337.5 489.5,337.5 488.5,337.5C 488.737,336.209 488.404,335.209 487.5,334.5C 484.432,333.978 481.432,333.145 478.5,332C 464.378,324.937 450.045,318.437 435.5,312.5C 434.461,309.653 435.128,307.32 437.5,305.5 Z"/></g>
<g><path style="opacity:0.831" fill="#455663" d="M 435.5,312.5 C 450.045,318.437 464.378,324.937 478.5,332C 481.432,333.145 484.432,333.978 487.5,334.5C 487.631,335.376 487.298,336.043 486.5,336.5C 485.264,335.754 483.93,335.421 482.5,335.5C 477.485,333.772 472.485,331.939 467.5,330C 456.046,323.938 444.379,318.438 432.5,313.5C 433.209,312.596 434.209,312.263 435.5,312.5 Z"/></g>
<g><path style="opacity:0.949" fill="#2703e9" d="M 798.5,265.5 C 799.161,266.718 799.828,268.051 800.5,269.5C 801.064,276.579 802.064,283.579 803.5,290.5C 801.029,294.211 801.029,297.878 803.5,301.5C 801.575,315.05 800.908,328.716 801.5,342.5C 816.833,342.5 832.167,342.5 847.5,342.5C 847.5,340.833 847.5,339.167 847.5,337.5C 834.456,338.147 821.789,337.48 809.5,335.5C 822.544,336.147 835.211,335.48 847.5,333.5C 848.627,334.122 849.627,334.955 850.5,336C 851.13,338.816 850.464,341.482 848.5,344C 833.66,344.159 819.16,344.325 805,344.5C 802.022,344.852 799.522,344.018 797.5,342C 798.495,316.574 798.828,291.074 798.5,265.5 Z"/></g>
<g><path style="opacity:0.753" fill="#5e3fee" d="M 1279.5,324.5 C 1282.93,328.269 1286.93,331.269 1291.5,333.5C 1291.5,334.167 1291.5,334.833 1291.5,335.5C 1288.18,333.842 1284.85,332.175 1281.5,330.5C 1280.39,329.735 1279.72,328.735 1279.5,327.5C 1279.5,326.5 1279.5,325.5 1279.5,324.5 Z"/></g>
<g><path style="opacity:0.773" fill="#997ded" d="M 811.5,333.5 C 823.5,333.5 835.5,333.5 847.5,333.5C 835.211,335.48 822.544,336.147 809.5,335.5C 810.167,334.833 810.833,334.167 811.5,333.5 Z"/></g>
<g><path style="opacity:0.212" fill="#7959e3" d="M 961.5,332.5 C 958.495,334.397 955.161,335.73 951.5,336.5C 943.343,338.05 935.343,337.55 927.5,335C 928.416,334.722 929.082,334.222 929.5,333.5C 939.836,335.228 950.002,334.561 960,331.5C 960.765,331.57 961.265,331.903 961.5,332.5 Z"/></g>
<g><path style="opacity:0.996" fill="#fafaf9" d="M 343.5,287.5 C 331.116,296.715 319.45,306.882 308.5,318C 307.207,318.49 305.873,318.657 304.5,318.5C 304.5,319.833 304.5,321.167 304.5,322.5C 292.575,328.088 289.575,336.754 295.5,348.5C 300.479,352.311 305.312,356.311 310,360.5C 311.128,362.345 311.628,364.345 311.5,366.5C 309.833,366.5 308.167,366.5 306.5,366.5C 306.421,367.93 306.754,369.264 307.5,370.5C 306.293,374.744 305.626,379.077 305.5,383.5C 303.799,397.18 301.965,410.846 300,424.5C 298.818,426.357 297.151,427.357 295,427.5C 278.236,424.573 261.403,422.073 244.5,420C 239.232,418.454 233.899,417.121 228.5,416C 213.527,407.692 198.86,399.192 184.5,390.5C 190.38,373.273 194.547,355.606 197,337.5C 198.492,333.506 201.325,331.172 205.5,330.5C 206.649,330.791 207.316,331.624 207.5,333C 208.573,340.365 210.406,347.532 213,354.5C 213.453,358.177 213.286,361.844 212.5,365.5C 212.515,367.634 213.015,369.634 214,371.5C 216.615,375.783 219.615,379.783 223,383.5C 227.545,387.775 233.045,389.775 239.5,389.5C 242.429,392.636 245.762,395.303 249.5,397.5C 250.474,399.743 250.808,402.076 250.5,404.5C 254.519,405.759 258.686,406.759 263,407.5C 264.28,407.387 265.113,406.72 265.5,405.5C 262.621,398.708 258.121,393.374 252,389.5C 252.726,384.517 254.226,379.684 256.5,375C 255.672,374.085 254.672,373.419 253.5,373C 249.848,372.501 246.182,372.335 242.5,372.5C 242.835,378.499 240.001,381.499 234,381.5C 231.719,380.224 229.719,378.557 228,376.5C 226.464,370.251 226.13,363.917 227,357.5C 227.036,352.526 228.202,347.859 230.5,343.5C 234.593,340.042 238.76,336.708 243,333.5C 250.815,334.384 258.648,335.217 266.5,336C 267.99,339.988 268.99,344.154 269.5,348.5C 270.941,349.865 272.274,351.365 273.5,353C 274.167,353.667 274.833,353.667 275.5,353C 276.622,347.398 276.622,341.731 275.5,336C 275.707,329.122 279.041,324.456 285.5,322C 291.226,320.303 296.559,317.803 301.5,314.5C 302.203,310.13 303.036,305.796 304,301.5C 307.167,297.328 309.667,292.828 311.5,288C 314.952,286.774 318.285,285.274 321.5,283.5C 322.429,284.689 322.762,286.022 322.5,287.5C 334.516,283.994 334.183,281.494 321.5,280C 324.005,278.247 326.671,276.747 329.5,275.5C 334.069,279.925 338.902,279.925 344,275.5C 342.552,271.244 341.052,266.911 339.5,262.5C 338.918,258.685 339.752,255.351 342,252.5C 342.667,253.833 343.667,254.833 345,255.5C 346.693,253.396 348.86,251.896 351.5,251C 350.829,250.014 350.829,248.847 351.5,247.5C 352.109,245.057 353.609,243.39 356,242.5C 356.355,238.103 357.522,233.936 359.5,230C 357.052,227.274 354.386,224.774 351.5,222.5C 351.719,221.325 351.386,220.325 350.5,219.5C 345.995,216.471 340.995,214.804 335.5,214.5C 338.768,213.513 342.102,213.18 345.5,213.5C 352.514,214.195 359.181,213.028 365.5,210C 366.582,208.67 367.249,207.17 367.5,205.5C 368.416,205.018 369.416,204.685 370.5,204.5C 382.468,207.193 394.468,209.693 406.5,212C 410.27,218.355 412.103,225.189 412,232.5C 403.738,237.045 395.905,242.212 388.5,248C 386.833,248.333 385.167,248.667 383.5,249C 382.299,252.21 380.299,254.877 377.5,257C 367.12,265.715 356.453,274.048 345.5,282C 344.891,283.948 344.224,285.782 343.5,287.5 Z"/></g>
<g><path style="opacity:0.871" fill="#7c5ce8" d="M 1291.5,333.5 C 1295.84,334.056 1300.17,334.723 1304.5,335.5C 1308.49,334.702 1312.49,334.035 1316.5,333.5C 1317.74,333.81 1317.74,334.31 1316.5,335C 1313.62,335.546 1310.95,336.379 1308.5,337.5C 1302.6,337.948 1296.93,337.281 1291.5,335.5C 1291.5,334.833 1291.5,334.167 1291.5,333.5 Z"/></g>
<g><path style="opacity:0.31" fill="#45617d" d="M 419.5,321.5 C 420.167,321.5 420.833,321.5 421.5,321.5C 421.5,348.833 421.5,376.167 421.5,403.5C 420.833,404.833 420.167,406.167 419.5,407.5C 420.428,377.927 420.428,349.26 419.5,321.5 Z"/></g>
<g><path style="opacity:0.996" fill="#213c66" d="M 285.5,355.5 C 290.53,356.669 295.03,359.002 299,362.5C 299.934,367.083 298.1,368.583 293.5,367C 288.804,365.135 284.804,362.302 281.5,358.5C 282.901,357.479 284.235,356.479 285.5,355.5 Z"/></g>
<g><path style="opacity:0.557" fill="#3a5372" d="M 423.5,319.5 C 423.833,319.5 424.167,319.5 424.5,319.5C 425.263,359.417 425.596,398.75 425.5,437.5C 424.124,442.529 420.791,444.529 415.5,443.5C 410.961,442.735 406.294,441.902 401.5,441C 402.448,440.517 403.448,440.351 404.5,440.5C 405.5,440.5 406.5,440.5 407.5,440.5C 409.5,440.5 411.5,440.5 413.5,440.5C 415.948,441.473 418.615,441.806 421.5,441.5C 421.5,438.167 421.5,434.833 421.5,431.5C 423.494,394.515 424.16,357.182 423.5,319.5 Z"/></g>
<g><path style="opacity:0.871" fill="#152148" d="M 423.5,319.5 C 424.16,357.182 423.494,394.515 421.5,431.5C 421.5,422.167 421.5,412.833 421.5,403.5C 421.5,376.167 421.5,348.833 421.5,321.5C 421.5,320.167 422.167,319.5 423.5,319.5 Z"/></g>
<g><path style="opacity:0.776" fill="#555b6e" d="M 311.5,366.5 C 309.397,375.129 307.73,383.796 306.5,392.5C 306.81,389.287 306.477,386.287 305.5,383.5C 305.626,379.077 306.293,374.744 307.5,370.5C 306.754,369.264 306.421,367.93 306.5,366.5C 308.167,366.5 309.833,366.5 311.5,366.5 Z"/></g>
<g><path style="opacity:0.993" fill="#fcfaf9" d="M 185.5,394.5 C 200.902,403.038 216.569,411.372 232.5,419.5C 232.823,442.908 232.489,466.242 231.5,489.5C 222.108,484.044 213.275,477.711 205,470.5C 203.941,467.382 202.608,464.382 201,461.5C 197.274,442.597 192.608,423.93 187,405.5C 186.064,401.886 185.564,398.22 185.5,394.5 Z"/></g>
<g><path style="opacity:0.161" fill="#82879f" d="M 306.5,393.5 C 306.097,402.943 305.097,412.277 303.5,421.5C 303.167,421.5 302.833,421.5 302.5,421.5C 303.617,412.002 304.95,402.669 306.5,393.5 Z"/></g>
<g><path style="opacity:0.667" fill="#52748b" d="M 521.5,380.5 C 522.833,394.167 522.833,407.833 521.5,421.5C 521.634,419.708 521.301,418.042 520.5,416.5C 520.5,405.5 520.5,394.5 520.5,383.5C 521.404,382.791 521.737,381.791 521.5,380.5 Z"/></g>
<g><path style="opacity:0.829" fill="#5d7992" d="M 524.5,377.5 C 525.492,377.328 526.158,377.662 526.5,378.5C 525.851,385.09 525.518,391.756 525.5,398.5C 525.504,405.204 526.17,411.537 527.5,417.5C 527.833,418.167 528.167,418.833 528.5,419.5C 527.07,419.421 525.736,419.754 524.5,420.5C 523.218,406.146 523.218,391.813 524.5,377.5 Z"/></g>
<g><path style="opacity:0.608" fill="#b1d4df" d="M 562.5,407.5 C 564.735,407.205 566.735,407.539 568.5,408.5C 555.439,412.015 542.439,415.681 529.5,419.5C 529.167,419.5 528.833,419.5 528.5,419.5C 528.167,418.833 527.833,418.167 527.5,417.5C 538.993,413.942 550.66,410.608 562.5,407.5 Z"/></g>
<g><path style="opacity:0.671" fill="#3f6875" d="M 565.5,411.5 C 553.657,414.997 541.657,418.331 529.5,421.5C 529.5,420.833 529.5,420.167 529.5,419.5C 542.439,415.681 555.439,412.015 568.5,408.5C 569.151,407.909 569.818,407.243 570.5,406.5C 571.833,407.5 571.833,408.5 570.5,409.5C 568.664,410.028 566.997,410.694 565.5,411.5 Z"/></g>
<g><path style="opacity:0.796" fill="#c5e1e8" d="M 520.5,416.5 C 521.301,418.042 521.634,419.708 521.5,421.5C 506.079,424.855 490.746,428.522 475.5,432.5C 474.494,432.062 474.494,431.396 475.5,430.5C 476.41,428.981 477.243,427.315 478,425.5C 479.009,426.658 480.342,427.325 482,427.5C 488.01,426.632 493.843,425.132 499.5,423C 500.833,422.333 500.833,421.667 499.5,421C 504.251,417.641 509.585,415.807 515.5,415.5C 515.5,416.5 515.5,417.5 515.5,418.5C 516.873,418.657 518.207,418.49 519.5,418C 517.068,416.913 517.402,416.413 520.5,416.5 Z"/></g>
<g><path style="opacity:0.996" fill="#55d8dd" d="M 475.5,430.5 C 474.494,431.396 474.494,432.062 475.5,432.5C 473.005,434.714 470.005,435.881 466.5,436C 469.555,436.634 472.555,436.468 475.5,435.5C 476.754,441.278 477.754,447.111 478.5,453C 474.368,464.474 467.201,473.64 457,480.5C 452.06,487.27 450.06,494.936 451,503.5C 449.857,506.777 449.023,510.11 448.5,513.5C 447.596,514.209 447.263,515.209 447.5,516.5C 447.082,517.222 446.416,517.722 445.5,518C 446.793,518.49 448.127,518.657 449.5,518.5C 445.927,519.182 442.594,520.682 439.5,523C 435.452,526.716 431.118,530.05 426.5,533C 423.509,535.99 421.343,539.49 420,543.5C 416.96,545.78 413.794,547.78 410.5,549.5C 409.849,548.909 409.182,548.243 408.5,547.5C 407.828,548.949 407.161,550.282 406.5,551.5C 406.167,551.5 405.833,551.5 405.5,551.5C 405.631,550.624 405.298,549.957 404.5,549.5C 396.969,550.146 389.469,551.146 382,552.5C 378.907,551.867 376.74,550.034 375.5,547C 367.851,545.197 360.184,545.197 352.5,547C 351.069,547.465 349.903,548.299 349,549.5C 344.252,555.401 339.752,561.401 335.5,567.5C 332.5,567.5 329.5,567.5 326.5,567.5C 326.819,562.637 326.486,557.97 325.5,553.5C 325.67,542.622 325.337,531.955 324.5,521.5C 327.853,521.655 328.186,520.988 325.5,519.5C 325.187,516.753 325.52,514.086 326.5,511.5C 330.451,509.698 334.117,507.698 337.5,505.5C 338.15,505.804 338.817,506.137 339.5,506.5C 340.773,505.743 340.773,505.077 339.5,504.5C 340.718,503.839 342.051,503.172 343.5,502.5C 343.376,501.893 343.043,501.56 342.5,501.5C 347.317,499.503 351.817,496.836 356,493.5C 360.133,486.231 363.966,478.898 367.5,471.5C 378.106,465.406 389.106,460.073 400.5,455.5C 401.773,454.743 401.773,454.077 400.5,453.5C 402.029,450.246 403.362,446.913 404.5,443.5C 408.167,443.5 411.833,443.5 415.5,443.5C 420.791,444.529 424.124,442.529 425.5,437.5C 427.327,435.868 429.161,434.201 431,432.5C 435.414,427.344 439.081,421.677 442,415.5C 442.75,414.874 443.584,414.374 444.5,414C 452.52,413.443 460.52,413.11 468.5,413C 470.978,418.788 473.312,424.621 475.5,430.5 Z"/></g>
<g><path style="opacity:0.702" fill="#152747" d="M 524.5,377.5 C 523.218,391.813 523.218,406.146 524.5,420.5C 525.736,419.754 527.07,419.421 528.5,419.5C 528.833,419.5 529.167,419.5 529.5,419.5C 529.5,420.167 529.5,420.833 529.5,421.5C 527.51,445.143 526.843,469.143 527.5,493.5C 527.5,494.833 528.167,495.5 529.5,495.5C 530.167,495.5 530.5,495.833 530.5,496.5C 529.564,497.974 528.23,498.974 526.5,499.5C 524.856,499.19 523.856,498.19 523.5,496.5C 525.49,472.189 526.157,447.523 525.5,422.5C 524.167,422.5 522.833,422.5 521.5,422.5C 521.5,422.167 521.5,421.833 521.5,421.5C 522.833,407.833 522.833,394.167 521.5,380.5C 521.5,379.5 521.5,378.5 521.5,377.5C 522.5,377.5 523.5,377.5 524.5,377.5 Z"/></g>
<g><path style="opacity:0.437" fill="#b19ae8" d="M 794.5,427.5 C 778.672,428.661 762.672,428.828 746.5,428C 747.056,427.617 747.389,427.117 747.5,426.5C 762.548,426.817 777.548,426.484 792.5,425.5C 793.522,425.855 794.189,426.522 794.5,427.5 Z"/></g>
<g><path style="opacity:0.329" fill="#9b85e9" d="M 955.5,426.5 C 954.666,427.748 953.333,428.415 951.5,428.5C 949.955,428.489 948.622,428.156 947.5,427.5C 949.684,426.734 952.018,426.067 954.5,425.5C 955.107,425.624 955.44,425.957 955.5,426.5 Z"/></g>
<g><path style="opacity:0.398" fill="#8b72e6" d="M 1019.5,427.5 C 1019.5,427.833 1019.5,428.167 1019.5,428.5C 1016.3,429.036 1013.64,428.369 1011.5,426.5C 1013.47,426.739 1015.3,426.406 1017,425.5C 1017.99,426.066 1018.83,426.733 1019.5,427.5 Z"/></g>
<g><path style="opacity:0.51" fill="#ac93ee" d="M 1075.5,426.5 C 1074.67,427.748 1073.33,428.415 1071.5,428.5C 1069.67,428.415 1068.33,427.748 1067.5,426.5C 1070.41,426.195 1073.08,426.195 1075.5,426.5 Z"/></g>
<g><path style="opacity:0.461" fill="#9378cc" d="M 1295.5,427.5 C 1279.87,429.485 1263.87,430.151 1247.5,429.5C 1247.5,428.5 1247.5,427.5 1247.5,426.5C 1262.88,426.817 1278.21,426.484 1293.5,425.5C 1294.52,425.855 1295.19,426.522 1295.5,427.5 Z"/></g>
<g><path style="opacity:0.996" fill="#fbfbf9" d="M 337.5,505.5 C 334.117,507.698 330.451,509.698 326.5,511.5C 325.52,514.086 325.187,516.753 325.5,519.5C 321.454,519.048 317.454,518.381 313.5,517.5C 287.404,512.467 261.737,505.801 236.5,497.5C 235.509,471.878 235.176,446.211 235.5,420.5C 252.867,422.674 270.201,425.174 287.5,428C 290.362,428.27 293.028,429.104 295.5,430.5C 306.176,449.182 316.342,468.182 326,487.5C 329.594,493.698 333.428,499.698 337.5,505.5 Z"/></g>
<g><path style="opacity:0.6" fill="#486977" d="M 521.5,421.5 C 521.5,421.833 521.5,422.167 521.5,422.5C 519.833,423.167 518.167,423.833 516.5,424.5C 502.656,428.042 488.99,431.708 475.5,435.5C 472.555,436.468 469.555,436.634 466.5,436C 470.005,435.881 473.005,434.714 475.5,432.5C 490.746,428.522 506.079,424.855 521.5,421.5 Z"/></g>
<g><path style="opacity:0.465" fill="#a78eec" d="M 849.5,426.5 C 859.839,426.334 870.172,426.5 880.5,427C 883.877,427.452 887.211,428.118 890.5,429C 892.584,429.697 894.251,430.864 895.5,432.5C 895.44,433.043 895.107,433.376 894.5,433.5C 888.913,430.304 882.913,428.971 876.5,429.5C 867.287,429.156 858.287,428.156 849.5,426.5 Z"/></g>
<g><path style="opacity:0.532" fill="#f0f4f5" d="M 302.5,421.5 C 302.833,421.5 303.167,421.5 303.5,421.5C 303.369,422.376 303.702,423.043 304.5,423.5C 306.106,422.923 307.772,422.59 309.5,422.5C 320.106,424.633 330.772,426.467 341.5,428C 362.18,429.274 382.847,430.774 403.5,432.5C 403.786,434.277 404.453,435.944 405.5,437.5C 405.457,438.416 405.124,439.083 404.5,439.5C 375.11,436.694 345.776,433.361 316.5,429.5C 311.823,429.165 307.156,428.665 302.5,428C 301.667,425.919 301.667,423.752 302.5,421.5 Z"/></g>
<g><path style="opacity:0.918" fill="#8f75ed" d="M 691.5,431.5 C 690.167,431.5 688.833,431.5 687.5,431.5C 681.655,428.46 675.321,427.126 668.5,427.5C 661.961,426.971 655.961,428.304 650.5,431.5C 647.379,432.288 645.712,434.288 645.5,437.5C 644.167,437.5 642.833,437.5 641.5,437.5C 643.653,433.183 646.986,430.016 651.5,428C 664.582,424.523 677.582,424.856 690.5,429C 691.252,429.671 691.586,430.504 691.5,431.5 Z"/></g>
<g><path style="opacity:0.996" fill="#310ed9" d="M 687.5,431.5 C 681.206,430.655 674.873,429.988 668.5,429.5C 662.45,429.928 656.45,430.595 650.5,431.5C 655.961,428.304 661.961,426.971 668.5,427.5C 675.321,427.126 681.655,428.46 687.5,431.5 Z"/></g>
<g><path style="opacity:0.988" fill="#2c1679" d="M 747.5,426.5 C 747.389,427.117 747.056,427.617 746.5,428C 762.672,428.828 778.672,428.661 794.5,427.5C 795.338,427.842 795.672,428.508 795.5,429.5C 780.833,429.5 766.167,429.5 751.5,429.5C 750.167,429.5 748.833,429.5 747.5,429.5C 746.508,429.672 745.842,429.338 745.5,428.5C 745.5,427.167 746.167,426.5 747.5,426.5 Z"/></g>
<g><path style="opacity:0.986" fill="#311b81" d="M 849.5,426.5 C 858.287,428.156 867.287,429.156 876.5,429.5C 867.5,429.5 858.5,429.5 849.5,429.5C 848.508,429.672 847.842,429.338 847.5,428.5C 847.5,427.167 848.167,426.5 849.5,426.5 Z"/></g>
<g><path style="opacity:0.957" fill="#8f75ea" d="M 1195.5,429.5 C 1195.63,430.376 1195.3,431.043 1194.5,431.5C 1180.11,426.035 1165.78,426.201 1151.5,432C 1149.41,433.171 1147.41,434.504 1145.5,436C 1144.18,436.816 1143.51,437.983 1143.5,439.5C 1141.94,439.733 1140.6,440.4 1139.5,441.5C 1139.5,440.833 1139.5,440.167 1139.5,439.5C 1145.52,432.333 1153.19,427.833 1162.5,426C 1173.92,424.613 1184.92,425.779 1195.5,429.5 Z"/></g>
<g><path style="opacity:0.925" fill="#9178ea" d="M 1395.5,429.5 C 1395.38,430.586 1394.71,431.253 1393.5,431.5C 1381.66,426.893 1369.66,426.393 1357.5,430C 1355.83,431.167 1354.17,432.333 1352.5,433.5C 1351.89,433.376 1351.56,433.043 1351.5,432.5C 1354.94,428.778 1359.28,426.611 1364.5,426C 1375.26,424.664 1385.59,425.83 1395.5,429.5 Z"/></g>
<g><path style="opacity:0.979" fill="#2102ee" d="M 745.5,428.5 C 745.842,429.338 746.508,429.672 747.5,429.5C 746.516,458.123 746.183,486.789 746.5,515.5C 762.153,516.781 777.82,516.781 793.5,515.5C 793.5,514.167 793.5,512.833 793.5,511.5C 790.212,511.073 787.212,511.74 784.5,513.5C 774.641,511.841 764.641,510.841 754.5,510.5C 753.827,508.311 752.827,506.311 751.5,504.5C 753.138,494.442 754.138,484.275 754.5,474C 751.246,472.482 750.746,470.315 753,467.5C 753.316,460.142 753.816,452.809 754.5,445.5C 753.5,445.5 752.5,445.5 751.5,445.5C 751.5,444.167 751.5,442.833 751.5,441.5C 755.335,440.996 755.335,439.996 751.5,438.5C 754.987,437.491 756.32,435.158 755.5,431.5C 753.517,431.843 752.183,431.176 751.5,429.5C 766.167,429.5 780.833,429.5 795.5,429.5C 795.931,431.26 795.931,433.26 795.5,435.5C 782.801,436.185 770.135,436.851 757.5,437.5C 756.447,438.438 755.78,439.605 755.5,441C 755.284,448.572 755.617,456.072 756.5,463.5C 755.566,464.568 755.232,465.901 755.5,467.5C 768.212,468.146 780.545,467.48 792.5,465.5C 794.027,468.796 793.693,471.962 791.5,475C 779.855,475.437 768.355,475.603 757,475.5C 756.691,476.766 756.191,477.933 755.5,479C 755.238,488.378 755.572,497.878 756.5,507.5C 755.957,507.56 755.624,507.893 755.5,508.5C 768.994,509.825 782.327,509.825 795.5,508.5C 796.368,511.327 796.368,514.327 795.5,517.5C 778.52,517.501 761.854,517.501 745.5,517.5C 744.171,487.706 744.171,458.039 745.5,428.5 Z"/></g>
<g><path style="opacity:0.978" fill="#2704f0" d="M 849.5,429.5 C 858.5,429.5 867.5,429.5 876.5,429.5C 882.913,428.971 888.913,430.304 894.5,433.5C 895.107,433.376 895.44,433.043 895.5,432.5C 899.471,434.719 902.304,438.052 904,442.5C 908.053,458.385 902.886,470.052 888.5,477.5C 887.624,477.369 886.957,477.702 886.5,478.5C 888.204,483.84 891.038,488.506 895,492.5C 899.215,500.931 903.382,509.264 907.5,517.5C 904.352,518.585 901.185,518.252 898,516.5C 891.667,505.5 885.333,494.5 879,483.5C 877.924,481.423 876.257,480.09 874,479.5C 869.819,479.551 865.652,479.551 861.5,479.5C 860.522,479.977 859.689,480.643 859,481.5C 858.5,493.495 858.333,505.495 858.5,517.5C 854.794,518.539 851.127,518.539 847.5,517.5C 847.5,516.5 847.5,515.5 847.5,514.5C 847.435,514.062 847.601,513.728 848,513.5C 848.278,514.416 848.778,515.082 849.5,515.5C 851.265,516.461 853.265,516.795 855.5,516.5C 855.5,504.167 855.5,491.833 855.5,479.5C 856.833,479.5 858.167,479.5 859.5,479.5C 859.5,478.167 859.5,476.833 859.5,475.5C 860.978,475.762 862.311,475.429 863.5,474.5C 861.668,473.943 860.335,472.943 859.5,471.5C 866.841,471.666 874.174,471.5 881.5,471C 886.307,469.853 889.974,467.187 892.5,463C 892.272,462.601 891.938,462.435 891.5,462.5C 896.852,447.686 891.852,439.186 876.5,437C 871.167,436.333 865.833,436.333 860.5,437C 859.874,437.75 859.374,438.584 859,439.5C 858.217,449.547 858.383,459.547 859.5,469.5C 859.167,470.167 858.833,470.833 858.5,471.5C 857.5,471.5 856.5,471.5 855.5,471.5C 855.5,460.167 855.5,448.833 855.5,437.5C 857.433,437.271 859.1,436.438 860.5,435C 861.337,433.989 861.67,432.822 861.5,431.5C 858.856,431.16 856.523,431.827 854.5,433.5C 853.158,431.995 851.492,431.328 849.5,431.5C 849.5,430.833 849.5,430.167 849.5,429.5 Z M 891.5,462.5 C 888.263,465.954 884.263,468.12 879.5,469C 872.842,469.5 866.175,469.666 859.5,469.5C 858.383,459.547 858.217,449.547 859,439.5C 859.374,438.584 859.874,437.75 860.5,437C 865.833,436.333 871.167,436.333 876.5,437C 891.852,439.186 896.852,447.686 891.5,462.5 Z"/></g>
<g><path style="opacity:0.997" fill="#2a01fa" d="M 747.5,429.5 C 748.833,429.5 750.167,429.5 751.5,429.5C 752.183,431.176 753.517,431.843 755.5,431.5C 756.32,435.158 754.987,437.491 751.5,438.5C 755.335,439.996 755.335,440.996 751.5,441.5C 751.5,442.833 751.5,444.167 751.5,445.5C 752.5,445.5 753.5,445.5 754.5,445.5C 753.816,452.809 753.316,460.142 753,467.5C 750.746,470.315 751.246,472.482 754.5,474C 754.138,484.275 753.138,494.442 751.5,504.5C 752.827,506.311 753.827,508.311 754.5,510.5C 764.641,510.841 774.641,511.841 784.5,513.5C 787.212,511.74 790.212,511.073 793.5,511.5C 793.5,512.833 793.5,514.167 793.5,515.5C 777.82,516.781 762.153,516.781 746.5,515.5C 746.183,486.789 746.516,458.123 747.5,429.5 Z"/></g>
<g><path style="opacity:0.604" fill="#516477" d="M 316.5,429.5 C 345.776,433.361 375.11,436.694 404.5,439.5C 404.5,439.833 404.5,440.167 404.5,440.5C 403.448,440.351 402.448,440.517 401.5,441C 406.294,441.902 410.961,442.735 415.5,443.5C 411.833,443.5 408.167,443.5 404.5,443.5C 401.423,442.144 398.09,441.311 394.5,441C 367.796,437.942 341.129,434.776 314.5,431.5C 314.5,431.167 314.5,430.833 314.5,430.5C 315.492,430.672 316.158,430.338 316.5,429.5 Z"/></g>
<g><path style="opacity:0.451" fill="#b0dee5" d="M 421.5,403.5 C 421.5,412.833 421.5,422.167 421.5,431.5C 421.5,434.833 421.5,438.167 421.5,441.5C 418.615,441.806 415.948,441.473 413.5,440.5C 414.417,437.583 415.084,434.583 415.5,431.5C 410.709,432.624 408.042,435.624 407.5,440.5C 406.5,440.5 405.5,440.5 404.5,440.5C 404.5,440.167 404.5,439.833 404.5,439.5C 405.124,439.083 405.457,438.416 405.5,437.5C 404.453,435.944 403.786,434.277 403.5,432.5C 405.199,432.66 406.866,432.494 408.5,432C 411.876,429.6 415.542,427.934 419.5,427C 418.148,424.706 417.481,422.206 417.5,419.5C 418.17,415.49 418.837,411.49 419.5,407.5C 420.167,406.167 420.833,404.833 421.5,403.5 Z"/></g>
<g><path style="opacity:0.949" fill="#59cdcc" d="M 413.5,440.5 C 411.5,440.5 409.5,440.5 407.5,440.5C 408.042,435.624 410.709,432.624 415.5,431.5C 415.084,434.583 414.417,437.583 413.5,440.5 Z"/></g>
<g><path style="opacity:0.965" fill="#2907ee" d="M 1195.5,429.5 C 1197.57,433.822 1196.23,437.488 1191.5,440.5C 1182.23,436.648 1172.56,435.482 1162.5,437C 1147.64,443.689 1140.3,455.355 1140.5,472C 1140.57,482.231 1143.57,491.398 1149.5,499.5C 1148.83,499.5 1148.17,499.5 1147.5,499.5C 1146.27,499.279 1145.27,498.612 1144.5,497.5C 1143.92,494.412 1142.59,491.745 1140.5,489.5C 1137.38,475.17 1138.38,461.17 1143.5,447.5C 1146.8,446.958 1148.8,444.958 1149.5,441.5C 1148.25,438.538 1146.25,437.872 1143.5,439.5C 1143.51,437.983 1144.18,436.816 1145.5,436C 1147.41,434.504 1149.41,433.171 1151.5,432C 1165.78,426.201 1180.11,426.035 1194.5,431.5C 1195.3,431.043 1195.63,430.376 1195.5,429.5 Z"/></g>
<g><path style="opacity:0.998" fill="#2701f7" d="M 1295.5,436.5 C 1283.12,436.187 1270.78,436.52 1258.5,437.5C 1257.5,446.475 1257.17,455.475 1257.5,464.5C 1256.23,465.189 1256.23,466.023 1257.5,467C 1263.5,467.167 1269.5,467.333 1275.5,467.5C 1281.87,467.496 1287.87,466.829 1293.5,465.5C 1294.63,467.966 1294.8,470.633 1294,473.5C 1293.25,474.126 1292.42,474.626 1291.5,475C 1280.19,475.435 1269.02,475.601 1258,475.5C 1257.19,486.243 1257.36,496.91 1258.5,507.5C 1255.83,508.167 1255.83,508.833 1258.5,509.5C 1258.39,510.117 1258.06,510.617 1257.5,511C 1268.85,511.168 1280.18,511.668 1291.5,512.5C 1279.27,512.978 1267.1,513.978 1255,515.5C 1253.28,515.252 1251.78,514.585 1250.5,513.5C 1250.08,501.398 1249.08,489.398 1247.5,477.5C 1248.17,476.167 1248.83,474.833 1249.5,473.5C 1248.53,471.608 1247.86,469.608 1247.5,467.5C 1250.09,459.177 1250.09,450.844 1247.5,442.5C 1248.39,438.85 1249.05,435.183 1249.5,431.5C 1264.94,430.966 1280.28,431.633 1295.5,433.5C 1295.5,434.5 1295.5,435.5 1295.5,436.5 Z"/></g>
<g><path style="opacity:0.992" fill="#2704f3" d="M 687.5,431.5 C 688.833,431.5 690.167,431.5 691.5,431.5C 691.167,434.167 690.833,436.833 690.5,439.5C 686.363,440.319 682.363,439.486 678.5,437C 671.833,436.333 665.167,436.333 658.5,437C 652.543,439.236 649.543,443.569 649.5,450C 650.479,452.433 651.145,454.933 651.5,457.5C 651.062,457.435 650.728,457.601 650.5,458C 652.607,459.264 653.607,461.097 653.5,463.5C 656.593,464.213 659.593,465.213 662.5,466.5C 669.152,469.158 675.819,471.825 682.5,474.5C 683.341,476.512 684.841,477.845 687,478.5C 687.472,482.794 689.638,485.794 693.5,487.5C 696.177,501.644 690.844,511.477 677.5,517C 663.673,520.811 650.173,519.978 637,514.5C 636.216,511.24 636.383,508.073 637.5,505C 639.066,504.235 640.399,504.402 641.5,505.5C 640.624,505.369 639.957,505.702 639.5,506.5C 651.148,512.091 663.148,512.924 675.5,509C 678.153,507.345 680.486,505.345 682.5,503C 681.906,502.536 681.239,502.369 680.5,502.5C 685.137,493.551 683.137,486.385 674.5,481C 666.466,477.658 658.466,474.325 650.5,471C 639.089,462.895 635.589,452.062 640,438.5C 640.383,437.944 640.883,437.611 641.5,437.5C 642.833,437.5 644.167,437.5 645.5,437.5C 645.712,434.288 647.379,432.288 650.5,431.5C 656.45,430.595 662.45,429.928 668.5,429.5C 674.873,429.988 681.206,430.655 687.5,431.5 Z"/></g>
<g><path style="opacity:0.996" fill="#a9b5c0" d="M 232.5,419.5 C 233.498,444.995 233.831,470.661 233.5,496.5C 232.076,494.485 231.41,492.152 231.5,489.5C 232.489,466.242 232.823,442.908 232.5,419.5 Z"/></g>
<g><path style="opacity:0.996" fill="#323a50" d="M 305.5,383.5 C 306.477,386.287 306.81,389.287 306.5,392.5C 306.5,392.833 306.5,393.167 306.5,393.5C 304.95,402.669 303.617,412.002 302.5,421.5C 301.667,423.752 301.667,425.919 302.5,428C 307.156,428.665 311.823,429.165 316.5,429.5C 316.158,430.338 315.492,430.672 314.5,430.5C 308.816,429.527 303.15,429.527 297.5,430.5C 308.667,451.5 319.833,472.5 331,493.5C 333.37,497.597 336.203,501.264 339.5,504.5C 340.773,505.077 340.773,505.743 339.5,506.5C 338.817,506.137 338.15,505.804 337.5,505.5C 333.428,499.698 329.594,493.698 326,487.5C 316.342,468.182 306.176,449.182 295.5,430.5C 293.028,429.104 290.362,428.27 287.5,428C 270.201,425.174 252.867,422.674 235.5,420.5C 235.176,446.211 235.509,471.878 236.5,497.5C 261.737,505.801 287.404,512.467 313.5,517.5C 310.319,518.59 306.985,518.59 303.5,517.5C 282.612,512.403 261.779,507.07 241,501.5C 239.624,501.684 238.791,502.351 238.5,503.5C 238.167,503.5 237.833,503.5 237.5,503.5C 235.929,501.365 234.596,499.032 233.5,496.5C 233.831,470.661 233.498,444.995 232.5,419.5C 216.569,411.372 200.902,403.038 185.5,394.5C 184.766,393.292 184.433,391.959 184.5,390.5C 198.86,399.192 213.527,407.692 228.5,416C 233.899,417.121 239.232,418.454 244.5,420C 261.403,422.073 278.236,424.573 295,427.5C 297.151,427.357 298.818,426.357 300,424.5C 301.965,410.846 303.799,397.18 305.5,383.5 Z"/></g>
<g><path style="opacity:0.298" fill="#1301e6" d="M 1019.5,427.5 C 1020.48,427.811 1021.14,428.478 1021.5,429.5C 1010.52,457.93 1000.02,486.597 990,515.5C 986.691,518.647 982.858,519.313 978.5,517.5C 976.446,513.672 974.779,509.672 973.5,505.5C 976.08,506.615 977.746,508.615 978.5,511.5C 980.589,510.197 982.256,510.697 983.5,513C 982.376,513.249 981.376,513.749 980.5,514.5C 983.167,515.833 985.833,515.833 988.5,514.5C 987.975,513.808 987.308,513.308 986.5,513C 992.18,506.318 995.346,498.485 996,489.5C 996.333,489.833 996.667,490.167 997,490.5C 1003.83,471.863 1010.66,453.196 1017.5,434.5C 1016.01,432.423 1014.01,431.423 1011.5,431.5C 1013.86,429.902 1016.52,428.902 1019.5,428.5C 1019.5,428.167 1019.5,427.833 1019.5,427.5 Z"/></g>
<g><path style="opacity:0.91" fill="#a1a7b5" d="M 314.5,430.5 C 314.5,430.833 314.5,431.167 314.5,431.5C 310.064,431.058 305.731,431.058 301.5,431.5C 301.372,433.655 301.872,435.655 303,437.5C 312.333,454.833 321.667,472.167 331,489.5C 334.025,493.024 336.858,496.691 339.5,500.5C 340.325,501.386 341.325,501.719 342.5,501.5C 343.043,501.56 343.376,501.893 343.5,502.5C 342.051,503.172 340.718,503.839 339.5,504.5C 336.203,501.264 333.37,497.597 331,493.5C 319.833,472.5 308.667,451.5 297.5,430.5C 303.15,429.527 308.816,429.527 314.5,430.5 Z"/></g>
<g><path style="opacity:0.945" fill="#a4ebee" d="M 400.5,453.5 C 401.773,454.077 401.773,454.743 400.5,455.5C 389.106,460.073 378.106,465.406 367.5,471.5C 368.203,469.284 369.536,467.451 371.5,466C 380.925,461.288 390.592,457.121 400.5,453.5 Z"/></g>
<g><path style="opacity:0.545" fill="#7556eb" d="M 651.5,457.5 C 655.702,460.432 660.035,463.098 664.5,465.5C 663.508,465.328 662.842,465.662 662.5,466.5C 659.593,465.213 656.593,464.213 653.5,463.5C 653.607,461.097 652.607,459.264 650.5,458C 650.728,457.601 651.062,457.435 651.5,457.5 Z"/></g>
<g><path style="opacity:0.894" fill="#8569ea" d="M 1356.5,455.5 C 1358.7,458.858 1361.7,461.358 1365.5,463C 1373.41,465.75 1381.08,469.083 1388.5,473C 1390.62,474.049 1392.28,475.549 1393.5,477.5C 1393.63,478.376 1393.3,479.043 1392.5,479.5C 1390.98,477.142 1388.98,475.309 1386.5,474C 1377.1,471.035 1368.1,467.202 1359.5,462.5C 1358.12,460.826 1356.79,459.16 1355.5,457.5C 1355.54,456.584 1355.88,455.917 1356.5,455.5 Z"/></g>
<g><path style="opacity:0.996" fill="#2902f7" d="M 1147.5,499.5 C 1151.04,505.615 1156.37,509.282 1163.5,510.5C 1170.32,511.818 1176.99,511.818 1183.5,510.5C 1186.95,509.47 1190.28,508.137 1193.5,506.5C 1194.69,506.866 1195.36,507.699 1195.5,509C 1194.3,510.533 1194.3,512.033 1195.5,513.5C 1194.91,514.799 1193.91,515.632 1192.5,516C 1173.87,522.46 1156.7,519.96 1141,508.5C 1139.28,506.283 1137.78,503.95 1136.5,501.5C 1137.68,501.719 1138.68,501.386 1139.5,500.5C 1134.88,496.596 1132.38,491.596 1132,485.5C 1129.41,469.799 1131.91,455.132 1139.5,441.5C 1140.6,440.4 1141.94,439.733 1143.5,439.5C 1146.25,437.872 1148.25,438.538 1149.5,441.5C 1148.8,444.958 1146.8,446.958 1143.5,447.5C 1138.38,461.17 1137.38,475.17 1140.5,489.5C 1142.59,491.745 1143.92,494.412 1144.5,497.5C 1145.27,498.612 1146.27,499.279 1147.5,499.5 Z"/></g>
<g><path style="opacity:0.28" fill="#6f4fd3" d="M 756.5,463.5 C 768.5,464.167 780.5,464.833 792.5,465.5C 780.545,467.48 768.212,468.146 755.5,467.5C 755.232,465.901 755.566,464.568 756.5,463.5 Z"/></g>
<g><path style="opacity:0.314" fill="#7253d3" d="M 1257.5,464.5 C 1269.68,464.172 1281.68,464.505 1293.5,465.5C 1287.87,466.829 1281.87,467.496 1275.5,467.5C 1269.5,467.333 1263.5,467.167 1257.5,467C 1256.23,466.023 1256.23,465.189 1257.5,464.5 Z"/></g>
<g><path style="opacity:0.372" fill="#586b84" d="M 529.5,421.5 C 528.345,444.761 528.178,468.094 529,491.5C 529.383,492.056 529.883,492.389 530.5,492.5C 529.791,493.404 528.791,493.737 527.5,493.5C 526.843,469.143 527.51,445.143 529.5,421.5 Z"/></g>
<g><path style="opacity:0.263" fill="#3111e2" d="M 955.5,426.5 C 956.458,426.953 957.292,427.619 958,428.5C 966.742,452.728 975.076,477.061 983,501.5C 985.41,494.766 987.91,488.099 990.5,481.5C 991.622,483.288 991.789,485.288 991,487.5C 990.667,486.833 990.333,486.167 990,485.5C 988.489,492.87 986.989,500.203 985.5,507.5C 984.167,507.5 982.833,507.5 981.5,507.5C 978.882,496.753 975.882,486.087 972.5,475.5C 971.663,473.156 970.329,471.156 968.5,469.5C 964.996,455.648 960.329,442.315 954.5,429.5C 952.392,431.382 951.059,433.715 950.5,436.5C 952.809,439.452 954.309,442.786 955,446.5C 955.654,445.304 956.154,445.304 956.5,446.5C 956.013,447.446 955.68,448.446 955.5,449.5C 960.519,462.863 965.519,476.197 970.5,489.5C 971.225,493.249 972.225,496.916 973.5,500.5C 973.376,501.107 973.043,501.44 972.5,501.5C 963.318,477.779 954.651,453.779 946.5,429.5C 946.543,428.584 946.876,427.917 947.5,427.5C 948.622,428.156 949.955,428.489 951.5,428.5C 953.333,428.415 954.666,427.748 955.5,426.5 Z"/></g>
<g><path style="opacity:0.336" fill="#9478eb" d="M 891.5,462.5 C 891.938,462.435 892.272,462.601 892.5,463C 889.974,467.187 886.307,469.853 881.5,471C 874.174,471.5 866.841,471.666 859.5,471.5C 859.167,471.5 858.833,471.5 858.5,471.5C 858.833,470.833 859.167,470.167 859.5,469.5C 866.175,469.666 872.842,469.5 879.5,469C 884.263,468.12 888.263,465.954 891.5,462.5 Z"/></g>
<g><path style="opacity:0.345" fill="#3d1bdf" d="M 1011.5,426.5 C 1013.64,428.369 1016.3,429.036 1019.5,428.5C 1016.52,428.902 1013.86,429.902 1011.5,431.5C 1007.21,440.189 1003.37,449.189 1000,458.5C 999.821,461.553 999.321,464.553 998.5,467.5C 996.336,471.736 994.002,475.736 991.5,479.5C 996.359,464.103 1001.53,448.77 1007,433.5C 1008.03,430.761 1009.53,428.428 1011.5,426.5 Z"/></g>
<g><path style="opacity:0.894" fill="#9479ec" d="M 662.5,466.5 C 662.842,465.662 663.508,465.328 664.5,465.5C 670.566,467.039 676.233,469.372 681.5,472.5C 681.833,473.167 682.167,473.833 682.5,474.5C 675.819,471.825 669.152,469.158 662.5,466.5 Z"/></g>
<g><path style="opacity:0.465" fill="#2705f2" d="M 1395.5,429.5 C 1397.94,432.618 1397.6,435.785 1394.5,439C 1387.55,437.405 1380.38,436.239 1373,435.5C 1359.51,435.805 1354.01,442.472 1356.5,455.5C 1355.88,455.917 1355.54,456.584 1355.5,457.5C 1356.79,459.16 1358.12,460.826 1359.5,462.5C 1368.1,467.202 1377.1,471.035 1386.5,474C 1388.98,475.309 1390.98,477.142 1392.5,479.5C 1393.3,479.043 1393.63,478.376 1393.5,477.5C 1396.23,479.071 1398.06,481.405 1399,484.5C 1402.54,497.572 1398.7,507.739 1387.5,515C 1372.54,520.903 1357.71,520.736 1343,514.5C 1342.2,511.304 1342.36,508.304 1343.5,505.5C 1355.43,512.127 1368.1,513.293 1381.5,509C 1383.31,508.072 1384.97,506.906 1386.5,505.5C 1387.78,504.386 1387.78,503.386 1386.5,502.5C 1389.53,496.196 1389.03,490.196 1385,484.5C 1375.79,479.481 1366.29,474.981 1356.5,471C 1342.28,460.974 1339.78,448.474 1349,433.5C 1349.67,432.748 1350.5,432.414 1351.5,432.5C 1351.56,433.043 1351.89,433.376 1352.5,433.5C 1354.17,432.333 1355.83,431.167 1357.5,430C 1369.66,426.393 1381.66,426.893 1393.5,431.5C 1394.71,431.253 1395.38,430.586 1395.5,429.5 Z"/></g>
<g><path style="opacity:0.984" fill="#2a00fa" d="M 849.5,431.5 C 851.492,431.328 853.158,431.995 854.5,433.5C 856.523,431.827 858.856,431.16 861.5,431.5C 861.67,432.822 861.337,433.989 860.5,435C 859.1,436.438 857.433,437.271 855.5,437.5C 855.5,448.833 855.5,460.167 855.5,471.5C 856.5,471.5 857.5,471.5 858.5,471.5C 858.833,471.5 859.167,471.5 859.5,471.5C 860.335,472.943 861.668,473.943 863.5,474.5C 862.311,475.429 860.978,475.762 859.5,475.5C 859.5,476.833 859.5,478.167 859.5,479.5C 858.167,479.5 856.833,479.5 855.5,479.5C 855.5,491.833 855.5,504.167 855.5,516.5C 853.265,516.795 851.265,516.461 849.5,515.5C 849.5,487.5 849.5,459.5 849.5,431.5 Z"/></g>
<g><path style="opacity:0.894" fill="#5a39e6" d="M 681.5,472.5 C 688.467,475.133 692.467,480.133 693.5,487.5C 689.638,485.794 687.472,482.794 687,478.5C 684.841,477.845 683.341,476.512 682.5,474.5C 682.167,473.833 681.833,473.167 681.5,472.5 Z"/></g>
<g><path style="opacity:0.753" fill="#9dadbe" d="M 521.5,422.5 C 522.833,422.5 524.167,422.5 525.5,422.5C 526.157,447.523 525.49,472.189 523.5,496.5C 522.833,496.5 522.167,496.5 521.5,496.5C 519.99,492.569 516.99,490.903 512.5,491.5C 514.555,490.516 516.722,489.516 519,488.5C 520.402,480.573 521.736,480.573 523,488.5C 523.167,485 523.333,481.5 523.5,478C 523.456,474.069 522.789,470.402 521.5,467C 522.684,465.82 523.351,464.32 523.5,462.5C 522.918,460.173 522.918,458.006 523.5,456C 523.095,455.055 522.428,454.388 521.5,454C 522.428,453.612 523.095,452.945 523.5,452C 522.167,450.667 522.167,449.333 523.5,448C 523.241,446.739 522.574,445.739 521.5,445C 524.058,443.62 524.058,442.12 521.5,440.5C 522.167,439.833 522.833,439.167 523.5,438.5C 522.028,438.594 520.862,437.594 520,435.5C 518.964,432.247 518.297,428.914 518,425.5C 517.617,424.944 517.117,424.611 516.5,424.5C 518.167,423.833 519.833,423.167 521.5,422.5 Z M 522.5,490.5 C 523.773,491.077 523.773,491.743 522.5,492.5C 521.537,492.03 521.537,491.363 522.5,490.5 Z"/></g>
<g><path style="opacity:0.647" fill="#1c03d5" d="M 1067.5,426.5 C 1068.33,427.748 1069.67,428.415 1071.5,428.5C 1073.33,428.415 1074.67,427.748 1075.5,426.5C 1076.12,426.611 1076.62,426.944 1077,427.5C 1077.67,457.167 1077.67,486.833 1077,516.5C 1075.87,517.944 1074.37,518.61 1072.5,518.5C 1070.8,517.932 1069.3,517.932 1068,518.5C 1067.33,517.833 1066.67,517.167 1066,516.5C 1065.83,513.5 1065.67,510.5 1065.5,507.5C 1066.21,484.013 1066.21,460.346 1065.5,436.5C 1065.67,433.833 1065.83,431.167 1066,428.5C 1066.28,427.584 1066.78,426.918 1067.5,426.5 Z"/></g>
<g><path style="opacity:0.998" fill="#2c01f7" d="M 1069.5,429.5 C 1071.49,429.328 1073.16,429.995 1074.5,431.5C 1075.5,459.492 1075.83,487.492 1075.5,515.5C 1071.84,516.128 1069.34,514.794 1068,511.5C 1067.83,498.167 1067.67,484.833 1067.5,471.5C 1067.53,457.347 1068.2,443.347 1069.5,429.5 Z"/></g>
<g><path style="opacity:0.114" fill="#3e19e5" d="M 847.5,428.5 C 847.842,429.338 848.508,429.672 849.5,429.5C 849.5,430.167 849.5,430.833 849.5,431.5C 849.5,459.5 849.5,487.5 849.5,515.5C 848.778,515.082 848.278,514.416 848,513.5C 847.601,513.728 847.435,514.062 847.5,514.5C 846.167,485.833 846.167,457.167 847.5,428.5 Z"/></g>
<g><path style="opacity:0.892" fill="#2d07e7" d="M 51.5,199.5 C 52.1667,199.5 52.8333,199.5 53.5,199.5C 53.5,326.833 53.5,454.167 53.5,581.5C 60.5692,581.743 60.9026,582.577 54.5,584C 55.8333,584.667 55.8333,585.333 54.5,586C 57.514,588.537 60.8474,590.37 64.5,591.5C 66.2294,592.236 67.2294,593.57 67.5,595.5C 61.4735,593.069 55.9735,589.735 51,585.5C 50.1673,456.666 50.334,327.999 51.5,199.5 Z"/></g>
<g><path style="opacity:0.294" fill="#a2b9c7" d="M 577.5,471.5 C 561.234,478.3 545.234,486.3 529.5,495.5C 528.167,495.5 527.5,494.833 527.5,493.5C 528.791,493.737 529.791,493.404 530.5,492.5C 545.906,484.046 561.406,475.713 577,467.5C 579.682,468.892 579.848,470.225 577.5,471.5 Z"/></g>
<g><path style="opacity:0.602" fill="#270ce3" d="M 1139.5,439.5 C 1139.5,440.167 1139.5,440.833 1139.5,441.5C 1131.91,455.132 1129.41,469.799 1132,485.5C 1132.38,491.596 1134.88,496.596 1139.5,500.5C 1138.68,501.386 1137.68,501.719 1136.5,501.5C 1133.08,496.415 1130.91,490.748 1130,484.5C 1128.65,472.599 1129.65,460.933 1133,449.5C 1134.94,445.931 1137.11,442.598 1139.5,439.5 Z"/></g>
<g><path style="opacity:0.306" fill="#4d6474" d="M 577.5,471.5 C 562.214,480.387 546.547,488.72 530.5,496.5C 530.5,495.833 530.167,495.5 529.5,495.5C 545.234,486.3 561.234,478.3 577.5,471.5 Z"/></g>
<g><path style="opacity:0.98" fill="#2a02f8" d="M 990.5,481.5 C 990.328,480.508 990.662,479.842 991.5,479.5C 994.002,475.736 996.336,471.736 998.5,467.5C 999.321,464.553 999.821,461.553 1000,458.5C 1003.37,449.189 1007.21,440.189 1011.5,431.5C 1014.01,431.423 1016.01,432.423 1017.5,434.5C 1010.66,453.196 1003.83,471.863 997,490.5C 996.667,490.167 996.333,489.833 996,489.5C 995.346,498.485 992.18,506.318 986.5,513C 987.308,513.308 987.975,513.808 988.5,514.5C 985.833,515.833 983.167,515.833 980.5,514.5C 981.376,513.749 982.376,513.249 983.5,513C 982.256,510.697 980.589,510.197 978.5,511.5C 977.746,508.615 976.08,506.615 973.5,505.5C 973.167,504.167 972.833,502.833 972.5,501.5C 973.043,501.44 973.376,501.107 973.5,500.5C 972.225,496.916 971.225,493.249 970.5,489.5C 965.519,476.197 960.519,462.863 955.5,449.5C 955.68,448.446 956.013,447.446 956.5,446.5C 956.154,445.304 955.654,445.304 955,446.5C 954.309,442.786 952.809,439.452 950.5,436.5C 951.059,433.715 952.392,431.382 954.5,429.5C 960.329,442.315 964.996,455.648 968.5,469.5C 970.329,471.156 971.663,473.156 972.5,475.5C 975.882,486.087 978.882,496.753 981.5,507.5C 982.833,507.5 984.167,507.5 985.5,507.5C 986.989,500.203 988.489,492.87 990,485.5C 990.333,486.167 990.667,486.833 991,487.5C 991.789,485.288 991.622,483.288 990.5,481.5 Z"/></g>
<g><path style="opacity:0.879" fill="#e4f0f3" d="M 512.5,491.5 C 516.99,490.903 519.99,492.569 521.5,496.5C 521.5,496.833 521.5,497.167 521.5,497.5C 510.577,501.085 499.577,504.585 488.5,508C 474.904,511.265 461.237,514.099 447.5,516.5C 447.263,515.209 447.596,514.209 448.5,513.5C 456.91,512.209 465.243,510.376 473.5,508C 476.057,507.315 477.891,505.815 479,503.5C 479.333,503.833 479.667,504.167 480,504.5C 481.579,502.959 483.413,501.792 485.5,501C 494.596,498.062 503.596,494.896 512.5,491.5 Z"/></g>
<g><path style="opacity:0.416" fill="#5736e2" d="M 888.5,477.5 C 895.78,490.559 903.446,503.392 911.5,516C 910.437,517.188 909.103,517.688 907.5,517.5C 903.382,509.264 899.215,500.931 895,492.5C 891.038,488.506 888.204,483.84 886.5,478.5C 886.957,477.702 887.624,477.369 888.5,477.5 Z"/></g>
<g><path style="opacity:0.12" fill="#9d84ed" d="M 680.5,502.5 C 681.239,502.369 681.906,502.536 682.5,503C 680.486,505.345 678.153,507.345 675.5,509C 663.148,512.924 651.148,512.091 639.5,506.5C 639.957,505.702 640.624,505.369 641.5,505.5C 650.652,507.976 659.986,508.81 669.5,508C 673.741,507.213 677.408,505.379 680.5,502.5 Z"/></g>
<g><path style="opacity:0.575" fill="#b7a8ea" d="M 795.5,508.5 C 782.327,509.825 768.994,509.825 755.5,508.5C 755.624,507.893 755.957,507.56 756.5,507.5C 767.485,507.673 778.485,507.339 789.5,506.5C 791.883,506.361 793.883,507.028 795.5,508.5 Z"/></g>
<g><path style="opacity:0.557" fill="#b8a9eb" d="M 1295.5,507.5 C 1283.55,509.48 1271.21,510.146 1258.5,509.5C 1255.83,508.833 1255.83,508.167 1258.5,507.5C 1270.92,507.434 1283.25,507.434 1295.5,507.5 Z"/></g>
<g><path style="opacity:0.163" fill="#9a81ee" d="M 1386.5,502.5 C 1387.78,503.386 1387.78,504.386 1386.5,505.5C 1384.97,506.906 1383.31,508.072 1381.5,509C 1368.1,513.293 1355.43,512.127 1343.5,505.5C 1343.92,504.876 1344.58,504.543 1345.5,504.5C 1355.55,508.101 1365.88,509.268 1376.5,508C 1380.21,506.773 1383.54,504.94 1386.5,502.5 Z"/></g>
<g><path style="opacity:0.604" fill="#8167df" d="M 1147.5,499.5 C 1148.17,499.5 1148.83,499.5 1149.5,499.5C 1152.42,502.885 1156.08,505.385 1160.5,507C 1166.77,508.257 1173.1,508.757 1179.5,508.5C 1175.02,509.326 1170.35,509.826 1165.5,510C 1171.49,510.499 1177.49,510.666 1183.5,510.5C 1176.99,511.818 1170.32,511.818 1163.5,510.5C 1156.37,509.282 1151.04,505.615 1147.5,499.5 Z"/></g>
<g><path style="opacity:0.953" fill="#b6a0f9" d="M 1193.5,506.5 C 1190.28,508.137 1186.95,509.47 1183.5,510.5C 1177.49,510.666 1171.49,510.499 1165.5,510C 1170.35,509.826 1175.02,509.326 1179.5,508.5C 1183.68,507.983 1187.68,506.649 1191.5,504.5C 1192.52,504.855 1193.19,505.522 1193.5,506.5 Z"/></g>
<g><path style="opacity:0.396" fill="#668490" d="M 521.5,497.5 C 521.5,497.833 521.5,498.167 521.5,498.5C 498.194,507.563 474.194,514.23 449.5,518.5C 448.127,518.657 446.793,518.49 445.5,518C 446.416,517.722 447.082,517.222 447.5,516.5C 461.237,514.099 474.904,511.265 488.5,508C 499.577,504.585 510.577,501.085 521.5,497.5 Z"/></g>
<g><path style="opacity:0.97" fill="#2402ea" d="M 1247.5,426.5 C 1247.5,427.5 1247.5,428.5 1247.5,429.5C 1263.87,430.151 1279.87,429.485 1295.5,427.5C 1296.27,428.172 1296.93,429.005 1297.5,430C 1297.31,431.645 1297.14,433.479 1297,435.5C 1296.62,436.056 1296.12,436.389 1295.5,436.5C 1295.5,435.5 1295.5,434.5 1295.5,433.5C 1280.28,431.633 1264.94,430.966 1249.5,431.5C 1249.05,435.183 1248.39,438.85 1247.5,442.5C 1250.09,450.844 1250.09,459.177 1247.5,467.5C 1247.86,469.608 1248.53,471.608 1249.5,473.5C 1248.83,474.833 1248.17,476.167 1247.5,477.5C 1249.08,489.398 1250.08,501.398 1250.5,513.5C 1251.78,514.585 1253.28,515.252 1255,515.5C 1267.1,513.978 1279.27,512.978 1291.5,512.5C 1280.18,511.668 1268.85,511.168 1257.5,511C 1258.06,510.617 1258.39,510.117 1258.5,509.5C 1271.21,510.146 1283.55,509.48 1295.5,507.5C 1297.95,510.556 1297.95,513.889 1295.5,517.5C 1294.55,517.987 1293.55,518.32 1292.5,518.5C 1277.4,517.206 1262.57,517.206 1248,518.5C 1247.33,517.833 1246.67,517.167 1246,516.5C 1246.81,487.614 1246.65,458.947 1245.5,430.5C 1245.67,428.829 1246.33,427.496 1247.5,426.5 Z"/></g>
<g><path style="opacity:0.525" fill="#647786" d="M 303.5,517.5 C 306.985,518.59 310.319,518.59 313.5,517.5C 317.454,518.381 321.454,519.048 325.5,519.5C 328.186,520.988 327.853,521.655 324.5,521.5C 316.924,519.935 309.258,519.268 301.5,519.5C 302.167,518.833 302.833,518.167 303.5,517.5 Z"/></g>
<g><path style="opacity:0.502" fill="#70727d" d="M 237.5,503.5 C 237.833,503.5 238.167,503.5 238.5,503.5C 255.527,521.529 271.86,540.196 287.5,559.5C 287.376,560.107 287.043,560.44 286.5,560.5C 269.822,541.82 253.488,522.82 237.5,503.5 Z"/></g>
<g><path style="opacity:0.516" fill="#a4abb9" d="M 521.5,498.5 C 522.748,499.334 523.415,500.667 523.5,502.5C 521.818,511.896 519.818,521.229 517.5,530.5C 498.489,547.179 480.156,564.513 462.5,582.5C 460.915,581.998 460.415,580.998 461,579.5C 479.069,562.593 497.235,545.926 515.5,529.5C 518.308,520.181 520.641,510.681 522.5,501C 522.257,500.098 521.923,499.265 521.5,498.5 Z"/></g>
<g><path style="opacity:0.114" fill="#b8c1c0" d="M 495.5,543.5 C 496.833,544.167 496.833,544.167 495.5,543.5 Z"/></g>
<g><path style="opacity:0.98" fill="#f7f8f8" d="M 303.5,517.5 C 302.833,518.167 302.167,518.833 301.5,519.5C 293.687,520.909 286.02,520.243 278.5,517.5C 277,517.453 276,518.119 275.5,519.5C 276.333,521.167 277.167,522.833 278,524.5C 287.482,532.316 295.982,541.15 303.5,551C 309.436,553.298 315.603,554.798 322,555.5C 323.434,555.138 324.601,554.472 325.5,553.5C 326.486,557.97 326.819,562.637 326.5,567.5C 329.5,567.5 332.5,567.5 335.5,567.5C 336.167,569.833 336.833,572.167 337.5,574.5C 337.5,576.167 337.5,577.833 337.5,579.5C 335.833,579.5 334.167,579.5 332.5,579.5C 328.016,577.719 323.349,576.385 318.5,575.5C 317.833,575.667 317.167,575.833 316.5,576C 316.38,577.713 316.547,579.546 317,581.5C 315.951,582.517 314.784,582.684 313.5,582C 306.368,575.601 298.701,569.935 290.5,565C 288.959,563.629 287.625,562.129 286.5,560.5C 287.043,560.44 287.376,560.107 287.5,559.5C 271.86,540.196 255.527,521.529 238.5,503.5C 238.791,502.351 239.624,501.684 241,501.5C 261.779,507.07 282.612,512.403 303.5,517.5 Z"/></g>
<g><path style="opacity:0.373" fill="#4a5264" d="M 521.5,496.5 C 522.167,496.5 522.833,496.5 523.5,496.5C 523.856,498.19 524.856,499.19 526.5,499.5C 524.743,507.786 523.077,516.119 521.5,524.5C 522.628,526.706 522.461,528.706 521,530.5C 501.669,547.153 482.836,564.653 464.5,583C 463.563,583.692 462.897,583.525 462.5,582.5C 480.156,564.513 498.489,547.179 517.5,530.5C 519.818,521.229 521.818,511.896 523.5,502.5C 523.415,500.667 522.748,499.334 521.5,498.5C 521.5,498.167 521.5,497.833 521.5,497.5C 521.5,497.167 521.5,496.833 521.5,496.5 Z"/></g>
<g><path style="opacity:0.71" fill="#9b7ef1" d="M 699.5,567.5 C 706.871,572.845 714.205,578.179 721.5,583.5C 721.631,584.376 721.298,585.043 720.5,585.5C 712.032,579.534 703.699,573.368 695.5,567C 696.819,566.805 698.153,566.972 699.5,567.5 Z"/></g>
<g><path style="opacity:0.855" fill="#c7e1e9" d="M 405.5,551.5 C 405.833,551.5 406.167,551.5 406.5,551.5C 404.447,561.5 402.28,571.5 400,581.5C 394.658,587.009 389.158,592.342 383.5,597.5C 382.903,597.265 382.57,596.765 382.5,596C 383.289,594.374 384.289,592.874 385.5,591.5C 382.694,590.832 380.028,590.166 377.5,589.5C 383.505,588.166 389.505,586.833 395.5,585.5C 395.5,582.167 395.5,578.833 395.5,575.5C 389.306,577.125 382.972,577.792 376.5,577.5C 383.239,577.144 389.572,575.144 395.5,571.5C 396.62,572.833 397.953,573.333 399.5,573C 401.583,565.83 403.583,558.664 405.5,551.5 Z"/></g>
<g><path style="opacity:0.255" fill="#5c7f91" d="M 410.5,549.5 C 407.14,560.585 404.64,571.918 403,583.5C 396.689,587.814 391.022,592.814 386,598.5C 385.329,597.748 384.496,597.414 383.5,597.5C 389.158,592.342 394.658,587.009 400,581.5C 402.28,571.5 404.447,561.5 406.5,551.5C 407.161,550.282 407.828,548.949 408.5,547.5C 409.182,548.243 409.849,548.909 410.5,549.5 Z"/></g>
<g><path style="opacity:0.957" fill="#9f88ef" d="M 82.5,569.5 C 141.998,602.745 200.998,636.745 259.5,671.5C 257.965,670.646 256.632,670.646 255.5,671.5C 197.386,638.118 139.386,604.784 81.5,571.5C 79.9689,570.075 80.3023,569.409 82.5,569.5 Z"/></g>
<g><path style="opacity:0.953" fill="#a993f4" d="M 691.5,569.5 C 692.552,569.351 693.552,569.517 694.5,570C 655.354,593.076 616.02,615.909 576.5,638.5C 575.791,637.596 574.791,637.263 573.5,637.5C 612.533,614.502 651.866,591.835 691.5,569.5 Z"/></g>
<g><path style="opacity:0.995" fill="#2b02f9" d="M 699.5,567.5 C 698.153,566.972 696.819,566.805 695.5,567C 703.699,573.368 712.032,579.534 720.5,585.5C 721.298,585.043 721.631,584.376 721.5,583.5C 722.598,584.601 722.765,585.934 722,587.5C 610.589,651.765 499.089,715.765 387.5,779.5C 280.476,718.659 173.81,657.326 67.5,595.5C 67.2294,593.57 66.2294,592.236 64.5,591.5C 66.8568,591.337 69.1902,591.503 71.5,592C 71.1667,592.333 70.8333,592.667 70.5,593C 78.2308,592.191 85.8975,590.691 93.5,588.5C 95.8442,587.663 97.8442,586.329 99.5,584.5C 98.8333,584.167 98.1667,583.833 97.5,583.5C 94.173,585.963 91.0064,585.963 88,583.5C 85.2656,585.129 82.7656,587.129 80.5,589.5C 79.4616,585.521 81.1282,583.521 85.5,583.5C 85.5,582.167 85.5,580.833 85.5,579.5C 84.1667,579.5 82.8333,579.5 81.5,579.5C 80.8333,576.833 80.1667,574.167 79.5,571.5C 80.1667,571.5 80.8333,571.5 81.5,571.5C 139.386,604.784 197.386,638.118 255.5,671.5C 299.293,697.006 343.293,722.339 387.5,747.5C 417.56,730.141 447.56,712.808 477.5,695.5C 510.617,676.772 543.617,657.772 576.5,638.5C 616.02,615.909 655.354,593.076 694.5,570C 693.552,569.517 692.552,569.351 691.5,569.5C 692.907,567.692 694.074,565.692 695,563.5C 696.667,564.733 698.167,566.067 699.5,567.5 Z"/></g>
<g><path style="opacity:0.953" fill="#b39ef5" d="M 573.5,637.5 C 574.791,637.263 575.791,637.596 576.5,638.5C 543.617,657.772 510.617,676.772 477.5,695.5C 476.368,694.646 475.035,694.646 473.5,695.5C 506.438,675.69 539.772,656.357 573.5,637.5 Z"/></g>
<g><path style="opacity:0.92" fill="#f7f8f8" d="M 377.5,589.5 C 372.152,588.496 366.819,587.163 361.5,585.5C 358.883,584.035 356.217,582.369 353.5,580.5C 354.665,579.416 355.998,578.583 357.5,578C 361.152,577.501 364.818,577.335 368.5,577.5C 371.167,577.5 373.833,577.5 376.5,577.5C 382.972,577.792 389.306,577.125 395.5,575.5C 395.5,578.833 395.5,582.167 395.5,585.5C 389.505,586.833 383.505,588.166 377.5,589.5 Z"/></g>
<g><path style="opacity:0.356" fill="#beeded" d="M 337.5,574.5 C 338.289,574.783 338.956,575.283 339.5,576C 346.414,576.811 353.248,576.645 360,575.5C 362.939,576.128 365.772,576.795 368.5,577.5C 364.818,577.335 361.152,577.501 357.5,578C 355.998,578.583 354.665,579.416 353.5,580.5C 356.217,582.369 358.883,584.035 361.5,585.5C 354.255,583.917 346.921,582.75 339.5,582C 337.073,581.098 334.74,580.264 332.5,579.5C 334.167,579.5 335.833,579.5 337.5,579.5C 337.5,577.833 337.5,576.167 337.5,574.5 Z"/></g>
<g><path style="opacity:0.965" fill="#b6a4f2" d="M 255.5,671.5 C 256.632,670.646 257.965,670.646 259.5,671.5C 302.213,695.521 344.88,719.521 387.5,743.5C 416.12,727.521 444.787,711.521 473.5,695.5C 475.035,694.646 476.368,694.646 477.5,695.5C 447.56,712.808 417.56,730.141 387.5,747.5C 343.293,722.339 299.293,697.006 255.5,671.5 Z"/></g>
</svg>
